<svg xmlns="http://www.w3.org/2000/svg" viewBox="0 0 337.33 72.63"><defs><style>.cls-1,.cls-10,.cls-11,.cls-7,.cls-8,.cls-9{fill:#007a92;}.cls-1,.cls-10,.cls-11,.cls-12,.cls-2,.cls-3,.cls-4,.cls-7,.cls-8,.cls-9{fill-rule:evenodd;}.cls-12,.cls-2,.cls-6{fill:#fff;}.cls-3{fill:#00798f;}.cls-4,.cls-5{fill:#007990;}.cls-7,.cls-8,.cls-9{stroke:#007a92;}.cls-7{stroke-linejoin:bevel;}.cls-10,.cls-12,.cls-7,.cls-8{stroke-width:0.22px;}.cls-10,.cls-12,.cls-8,.cls-9{stroke-miterlimit:22.93;}.cls-11,.cls-9{stroke-width:0.11px;}.cls-10,.cls-11,.cls-12{stroke:#fff;}.cls-11{stroke-linejoin:round;}</style></defs><g id="图层_2" data-name="图层 2"><g id="_" data-name="ͼ"><path class="cls-1" d="M93.21,2.34c-.21.38,1.46,1.93,1.62,2s.54.3.8,0S97,2.84,97.15,2.73s.15-.31.42-.3.45,0,.46.32-.76,1.06-.85,1.18-1.31,1.85-1.43,2-1.36,1.63-1.53,1.75-.57.71-.72.77-.53-.19-.64,0l-.68,1.29A2.21,2.21,0,0,0,92,11c.12.73.52.78.79.73s1.11-.32,1.27-.63A6,6,0,0,1,94.69,10c.17-.16.53-.88.75-.88s.32-.1.44,0,0,.93,0,.93-.36,0-.35.3,0,.93.26,1a2.41,2.41,0,0,1,.48.19.43.43,0,0,1,.13.26,1.47,1.47,0,0,1-.3.74c-.19.24-.43.38-.47.51s0,.56,0,.72A6.33,6.33,0,0,1,94.8,15a5.57,5.57,0,0,0-.74,1.15,5.79,5.79,0,0,1-.76.78c-.22.12-.39.09-.56.23s-.13.43-.3.48-.57.2-.66.42a1.16,1.16,0,0,0-.11.86,1.42,1.42,0,0,0,.4.75,1.3,1.3,0,0,0,.92.18,2.23,2.23,0,0,0,1.15-.57,10.3,10.3,0,0,1,.63-.86c.2-.21,1-1,1.23-1.25s.77-.93,1.18-1,.73-.68,1-.59.55-.07.48.1a6.71,6.71,0,0,1-.92,1,4.93,4.93,0,0,1-.4.39,6.47,6.47,0,0,0-1.16,1.22c-.06.13,0,.26,0,.46s-.19.73-.06.94a.84.84,0,0,0,1,.29c.3-.1.32-.39.68-.87a3.29,3.29,0,0,0,.48-1c.13-.28.48-.46.54-.29s.38.56.36.75a.88.88,0,0,0,.21.6c.19.3.27.58.59.56s.71,0,.77-.28.26-.59.28-.75a.76.76,0,0,0-.38-.71,3.08,3.08,0,0,1-.84-.92.85.85,0,0,1-.23-.86c.12-.56,1-1.42,1-2A1,1,0,0,0,99.65,13c-.58,0-.68.13-.69,0s.25-.3.27-.54-.2-.35-.3-.69a2.32,2.32,0,0,1,0-1.1,1.09,1.09,0,0,0-.33-1.05A1.22,1.22,0,0,1,98,8.35c.44-1-.2-2.12-1.05-2-.41,0-.69.31-.85.3,0,0-.28-.27.29-.57s.64-.84,1-.9a5.62,5.62,0,0,1,1.34-.41c.52,0,1.3-1.48,1.59-2.07s.58-1.23.27-1.74-.58-1-.9-.9-.84-.09-1,.18A1.9,1.9,0,0,1,98,1a6.61,6.61,0,0,0-1,.33,2.57,2.57,0,0,1-1,.47,7.56,7.56,0,0,1-1.86,0C93.81,1.67,93.21,2.34,93.21,2.34Z"/><path class="cls-1" d="M103,10.6c-.29,0-.49.27-.58.32a1.72,1.72,0,0,1-.47,0c-.13,0-.55-.44-.44-.62s.06-.37.24-.52.27-.73.47-.88a7.37,7.37,0,0,0,.69-1.14,1.27,1.27,0,0,0,.33-.64,9.26,9.26,0,0,1,.15-2.76c.28-.49,0-1.12.28-1.59s.37-1.22.58-1.14a.81.81,0,0,1,.63.46c.21.38,0,1.66.17,1.94.28.51.1,1.54.28,1.59s.33.14.48,0,.62-.73,1.06-.65,1.1.19,1.17.83a2.82,2.82,0,0,1-.08,1.4c-.14.41-.76,1.44-.88,1.81-.17.55-.61,1.25-.3,1.88a3.67,3.67,0,0,0,1,.92,1.93,1.93,0,0,1,1.37,2,5.66,5.66,0,0,1-.59,2.49c-.27.56-.72,1.3-1.29,1.37a9.44,9.44,0,0,1-2,0c-.12-.08.16.71.16.71a13.15,13.15,0,0,0,0,2.57,22.13,22.13,0,0,0,.59,2.25,2.24,2.24,0,0,1,.31,1.27.8.8,0,0,1-.55.35,1.65,1.65,0,0,1-1-.13,3.91,3.91,0,0,1-1.19-2.08c-.19-1.08,0-2.94-.1-3.3a11.65,11.65,0,0,1,0-2.07c0-.59-.5-2-.45-2.14S103,10.6,103,10.6Z"/><path class="cls-1" d="M115.94,11.14c-.09.29-.45,1.1-.83,1.12a1.72,1.72,0,0,0-.85.29c-.11.09-.53.18-.46.52a12.27,12.27,0,0,0,.79,1.74c.16.32,1.3,1.54,1.3,1.74a2.12,2.12,0,0,0,.17,1,14.94,14.94,0,0,0,.6,1.39c.28.39.4.74.76.59a.89.89,0,0,0,.54-.81c0-.32,0-1.64.15-1.76s.35-1.22.45-1.57a.75.75,0,0,1,.29-.52c.13-.13.11-.49.27-.57s.12-.11.41.28a2.09,2.09,0,0,0,.81.75.66.66,0,0,0,.71-.28,2.5,2.5,0,0,0,.29-.82c0-.25-.17-1.05-.19-1.47a2.22,2.22,0,0,0-.21-1.06c-.17-.17-.43-.37-.57-.2a1.48,1.48,0,0,0-.41.65c0,.25-.14.57-.14.57a1.3,1.3,0,0,1-.12-.75,5.59,5.59,0,0,1,.36-1.13,6.51,6.51,0,0,0,0-2.84c-.33-.63-1-2.15-1.22-2.61s-.81-.92-.91-.75-.56.08-.28.78a2,2,0,0,0,.23.43c.09.17.15,5.34.1,5.93a12.36,12.36,0,0,1-.52,1.57,2.52,2.52,0,0,1-.3,1.26c-.21.2-.45.27-.59,0a1.78,1.78,0,0,1-.22-1.29,5.5,5.5,0,0,0,.31-1.62,2,2,0,0,0-.4-.81Z"/><path class="cls-1" d="M122.29,11.24c-.14.19-.31.88-.47,1.15a6.45,6.45,0,0,0-.1,1.88c0,.52-.12,2.55-.07,3a3.42,3.42,0,0,0,.4,1.57c.34.51.62.78,1,.73s.5-.41.4-.83-.31-.22-.4-.69a8.44,8.44,0,0,1-.17-1.83c0-.61,0-1.52.26-1.74s.34-.59.53-.59,0,.49.28.74.73.51.83.22.56-.51.41-1a5.93,5.93,0,0,1-.33-1.1c0-.27-.15-.91.14-1.2a.63.63,0,0,0-.07-1,.57.57,0,0,0-.64.1s-.19-.48-.1-.69a4.15,4.15,0,0,0,.38-1.39,7.45,7.45,0,0,0-.21-3c-.43-1.1-.88-1.81-1.14-1.81s-.55-.15-.65.17a17.76,17.76,0,0,0-.16,2.79C122.44,7.2,122.29,11.24,122.29,11.24Z"/><path class="cls-1" d="M127.52,2.26a5.94,5.94,0,0,0-.42,2.44,7.86,7.86,0,0,1,0,1.44c-.07.27-.1.55-.17.94s-.07,5.26-.07,5.26a9.48,9.48,0,0,0,.1,1.15,11.79,11.79,0,0,1,.11,1.82,6.47,6.47,0,0,1-.47,1.61s-.61.46-.4.92.87,1.18,1.14,1.71a4.08,4.08,0,0,1,.48,1c0,.22.26.88.9.7s.6-.83.58-1.22a4.55,4.55,0,0,0-.39-1.3,10.45,10.45,0,0,1-.29-1.44c-.07-.32.05-6.44.12-6.75s.16-2.22.23-2.78a13.11,13.11,0,0,1,.39-2,.89.89,0,0,0,.13-.7,10.5,10.5,0,0,0-1.39-2.45A3.15,3.15,0,0,1,127.52,2.26Z"/><path class="cls-1" d="M140,2.46a9.9,9.9,0,0,0,.06,2.9c0,.68.22,1.72.23,2.52,0,.4-.16.5-.16,1a23,23,0,0,1-.31,3.88,14.7,14.7,0,0,1-3.25,2.06c-.66.26-.53-.14-1.06-.24s-.75-.25-1.19-.15-.63.55-.39,1.09,2.07,1.71,2.61,1.43a8.22,8.22,0,0,0,1.15-.84c.2-.13.61-.18.75,0s.2.26-.24,1.28A20.44,20.44,0,0,1,136.61,20a3,3,0,0,1-.84.24c-.54.06-1.15,0-1.14.22,0,.41.43.95,1.15,1.44a3.36,3.36,0,0,0,2.52.46,3.26,3.26,0,0,0,1.45-1.64c.24-.79.48-2.06.81-2.15s.51-.24.84.45a11.32,11.32,0,0,0,1.89,2.49c.4.28.85.87,1.38.87a9.26,9.26,0,0,1,3.55.16,1.19,1.19,0,0,0,.9,0c.7-.52-.28-1.29-.6-1.63a2.27,2.27,0,0,0-1.37-.65,4.9,4.9,0,0,1-2.47-.72c-.34-.2-2.84-2.23-3.27-2.54s-.38-1.82.19-2.4,2.13-.43,2.72-.56,1.7-.51,1.94-1.1.18-1-.1-1-1-.2-1.1-.5.31-.77,0-1c-.14-.12-.51-.07-.81.15a6.91,6.91,0,0,0-.82.84c-.33.29-1.25.69-1.44.56s-.14-.22.1-.81a11.34,11.34,0,0,0,.46-3.36c0-1.28.34-2.88,0-3.32s-.44-1.49-.74-1.79-.87-.89-1.23-.8S140,2.46,140,2.46Z"/><path class="cls-1" d="M155.16,3.89a5.43,5.43,0,0,0,0,2.7c.28.32.91,1.23,1.52,1s.87-.59.89-.86a11.14,11.14,0,0,1-.27-1.63c.05-.58.21-.69.21-.69s.55-.68.55-.9-.09-.86-.09-.86a5.18,5.18,0,0,1,.71.85c.17.32.57.91.76.94a1.11,1.11,0,0,0,.87-.61c.27-.46.44-1.13.63-1.37a1.35,1.35,0,0,1,1-.59,1.75,1.75,0,0,1,1.19.32,3,3,0,0,1,.86.51c.05.12.19.32-.05.47s-.14.39-.28.51-.86,1.52-1.48,1.74S161,6.66,161,6.66A7.44,7.44,0,0,1,159.27,8c-.53.14-.53.35-.83.45A11.14,11.14,0,0,0,157.3,9a6.75,6.75,0,0,1-1.35.68,8.76,8.76,0,0,0-1.19.4,1.47,1.47,0,0,0-.64,1.24,2.25,2.25,0,0,0,.35.79c.15.24.39.94.88.93s1.34-.85,2.15-1.74a3.31,3.31,0,0,1,1.63-1A9.44,9.44,0,0,0,161,9a2.94,2.94,0,0,1,1.89-.62,5.9,5.9,0,0,1,1.43.08c.18.11.55.18.6.33a1.61,1.61,0,0,1-.36,1.08,2.88,2.88,0,0,1-1.52.58,2,2,0,0,0-1.24.37c-.12.2-1.09.74-1.42,1.18s-.6.55-.66.71.16.33.31.67a.91.91,0,0,0,.7.57,1.62,1.62,0,0,0,.79-.55c.09-.16.33-.6.44-.63s.53-.21.48.06.1,1-.12,1.27-.46,1.05-.75,1.3a2.43,2.43,0,0,1-1.05.67c-.4.08-1.66.38-2,.4s-1.16.2-1.3.24-.84.3-1,.62.4.72.68.8.75-.09,1,.08.66.64.91.83a2.15,2.15,0,0,0,1.68.21c.46-.25.83-.05,1.09-.31a.87.87,0,0,1,.85-.12c.1.07-.2.47-.58.62a6.36,6.36,0,0,1-1.45.41,14.31,14.31,0,0,1-2.21.29,4.67,4.67,0,0,0-1.48.08c-.35.09-.52.63,0,1a2.06,2.06,0,0,0,1.54.7,7.29,7.29,0,0,1,2.32.37,12.29,12.29,0,0,0,2.76.52c.51,0,.81-.74,1.34-1.33a1.26,1.26,0,0,0,.15-1.57c-.23-.29-.6-1-.65-1.1s.23-.16.63-.14c.6,0,1.8.65,2.34.15a1.31,1.31,0,0,0,.18-1.82c-.62-.84-1.08-1.49-1.84-1.64s-1.34-.41-1.56-.41-.47-.05-.52-.27a1.2,1.2,0,0,1,.14-.87c.17-.25.42-1.3.75-1.57s1.6-1.42,2-1.42,1-1.31.52-2a2.72,2.72,0,0,0-2.45-1.55l-2.14-.18s1.11-1.29,1.66-1.87a4.83,4.83,0,0,1,1.58-1.23c.52-.23.79-.2,1-.61a1.52,1.52,0,0,0-.48-1.9,1.71,1.71,0,0,0-1.55-.22c-1.06-.76-1.77-.52-3-.2-.38.1-1.53.72-1.89.4A1.38,1.38,0,0,0,158,1.25c-.41.27-.72.49-.84.88s-.38.91-.59.93-.69.32-.83.08-.55-.3-.53,0A3.07,3.07,0,0,1,155.16,3.89Z"/><path class="cls-2" d="M105.06,10s0,2.4-.06,2.72a6.24,6.24,0,0,0-.31,1.84,2.19,2.19,0,0,0,.55,1.56,1.23,1.23,0,0,0,1.12.05,1.59,1.59,0,0,0,1.12-1.89,4,4,0,0,0-.72-1.63c-.21-.3-.93-.91-.93-1.45a8.56,8.56,0,0,1,0-1.83c.12-.22.21-.76.35-1.15A5.11,5.11,0,0,0,106.55,7c.06-.44,0-.41-.25-.39s-.2,0-.53.38a1.79,1.79,0,0,0-.41,1.16c0,.37-.35.85-.35,1.16A4.28,4.28,0,0,0,105.06,10Z"/><path class="cls-3" d="M178.76,7a1.13,1.13,0,0,0,1.07.18.68.68,0,0,1,.84.61A1.46,1.46,0,0,1,180,8.88a6.38,6.38,0,0,1-1.06,2c-.36.46-.33.84.07,1.14,1.12,1,1.3,1.81.54,2.45q-.76.43-.84.87c-.16.41-.69.79-1.6,1.14a1.82,1.82,0,0,0-1,1.41c0,.29-.1.72-.15,1.31a8.82,8.82,0,0,0-.08,1.93c-.05.29-.13.46-.23.52s-.28-.11-.38-.35a8.75,8.75,0,0,1-.23-3.68,44.93,44.93,0,0,0,.23-6,1.6,1.6,0,0,0-.31-1v-.18a3.32,3.32,0,0,1-.38-2.36c.31-.93.77-1.29,1.38-1,.2.23.45.2.76-.09a3.39,3.39,0,0,1,2-.09Zm4.5.18a1,1,0,0,1-.46.79,5.54,5.54,0,0,0-1.37,1.31,15.56,15.56,0,0,1-1.3,1.4c-.35.41-.3.85.16,1.32a2.71,2.71,0,0,1,.76,1.23.71.71,0,0,0,.23.61,4,4,0,0,1-.08,1.4,1.14,1.14,0,0,0-.08.79,9.19,9.19,0,0,1-.15,2.19,7.49,7.49,0,0,0,.23,3.15c.3.29.53.27.68-.08a17.94,17.94,0,0,0,.31-4.21,3.1,3.1,0,0,1,0-1.67,19.1,19.1,0,0,0,.07-3.32c0-.59.49-1.44,1.61-2.55a1.8,1.8,0,0,0-.16-2.63c-.35-.11-.51,0-.45.27Zm4.79.35c.36-.29.64-.23.84.17V9.32c0,.7.15,1,.46.88a5.67,5.67,0,0,1,1.29-.09,1.8,1.8,0,0,0,1.22-.18q.15-.18.3-.09a.29.29,0,0,1,.16.27,9.69,9.69,0,0,1-.61,1.22c0-.05,0,0-.08.18-.71,1.05-1.42,1.58-2.13,1.58-.46.06-.69.23-.69.52.16,2.46.21,4.88.16,7.28-.21.93-.71,1.28-1.53,1.05a4.18,4.18,0,0,0-1.67-.27,7.74,7.74,0,0,1-2.21-.7c-.15-.11-.23-.2-.23-.26s.1-.09.31-.09a2.72,2.72,0,0,0,1.14-.35c.3-.06.73-.11,1.29-.17,1,0,1.5-.38,1.6-1.14a7.61,7.61,0,0,0,0-2.63A6.83,6.83,0,0,1,187.6,15a14.64,14.64,0,0,1,.07-1.67c-.1-.7-.48-1-1.14-.88a8.42,8.42,0,0,1-2.06.71c-1.11.29-1.49-.33-1.14-1.85.15-.4.38-.49.69-.26a1.61,1.61,0,0,0,1.14-.26,3.6,3.6,0,0,1,1.6-.53c.36,0,.66-.29.91-.87a6.63,6.63,0,0,0,.15-.88,1.78,1.78,0,0,1,.23-1Zm-10.43,2.1a3.31,3.31,0,0,0-1.45.79v.88c.05.4.31.49.77.26a4.3,4.3,0,0,0,1.14-1.4c.1-.3.1-.47,0-.53s-.16-.06-.46,0Zm.46,3.42a2.15,2.15,0,0,0-1.83.79,7.27,7.27,0,0,1,.08,1.31c-.05.29,0,.47.07.53s.36,0,.61-.27a6.15,6.15,0,0,0,1.37-1.57c.21-.47.1-.73-.3-.79Zm5.18,1.93c.2-.53.5-.67.91-.44a5.07,5.07,0,0,0,2.28,0c.16-.06.26,0,.31.09s0,.29-.08.35a1.88,1.88,0,0,0-.45.61,5.1,5.1,0,0,1-1.53,1.23q-.91.43-1.29-.18a1.74,1.74,0,0,1-.15-1.66Zm20.25-8.59a3.55,3.55,0,0,1,1.6,0,1.56,1.56,0,0,0,1.07,0,7.94,7.94,0,0,1,2.36.44c.56.23,1,.2,1.22-.09.45-.35.78-.23,1,.35-.06.7-.18,1.14-.39,1.31a4.8,4.8,0,0,1-.76.71c-.3.29-.53.52-.68.69q-.69.79-2.67.45a11.48,11.48,0,0,0-5.1.43.29.29,0,0,1-.23.09,1.59,1.59,0,0,1-.91.09c-.51-.06-.79.2-.84.79a17.3,17.3,0,0,0-.38,2.54,3.91,3.91,0,0,1-.15,1.22,2.42,2.42,0,0,0-.23,1.06,11.46,11.46,0,0,1-1.9,4.82c-.66.4-1.15.43-1.45.08-.2-.17-.13-1.13.23-2.89,0-.17,0-.26.07-.26s.18,0,.38.17c.26.41.67-.05,1.22-1.4a31,31,0,0,0,1.3-6.83c.05-.47.25-.73.61-.79a3.1,3.1,0,0,0,2.2-.35,6.11,6.11,0,0,1,2.37-.53,9.41,9.41,0,0,1,2.51.09,4,4,0,0,0,1.37.17,1.89,1.89,0,0,1,.53.09H208q.84,0,.69-.87a11.46,11.46,0,0,0-4-.53,2.77,2.77,0,0,1-1.52.09,3.22,3.22,0,0,0-1.75.44c-1.78.75-2.84.84-3.2.26A1,1,0,0,1,198,7.3c.1-.29.28-.35.53-.17s.46.17.92,0a5.94,5.94,0,0,1,2.13-.62,9.13,9.13,0,0,0,1.9-.17Zm8.3,4.38a1.82,1.82,0,0,1-1,.09,7.62,7.62,0,0,0-1.14.26.85.85,0,0,1-.76,0h-1.14l-.23-.09a4,4,0,0,0-1-.08.48.48,0,0,1-.54,0,2.32,2.32,0,0,0-.91,0,2.43,2.43,0,0,1-1.22.08,8.08,8.08,0,0,0-3,.7.67.67,0,0,1-.69.18.38.38,0,0,0-.23.61c0,.29.31.38.76.26a20.7,20.7,0,0,1,3.43-.61c.15.35,0,.64-.53.88-.76.23-1.4.41-1.91.52a.7.7,0,0,1-.83,0,1.09,1.09,0,0,0-.84,0,.53.53,0,0,0-.08.71,2.72,2.72,0,0,1,0,1.57c-.2.53,0,.85.54,1a3.08,3.08,0,0,0,1.9-.09,2.33,2.33,0,0,1,1.14-.18c.25.12.23.44-.07,1a21.76,21.76,0,0,1-3.51.44c-.55-.06-.81.14-.76.61a1.84,1.84,0,0,1-.23.88,8.72,8.72,0,0,0-.3,1.75c.15.29.46.26.91-.09a1.87,1.87,0,0,0,.61-1,1.77,1.77,0,0,1,.91-1c.82-.42,1.35-.56,1.6-.44s.23.11.23.17,0,.18-.07.35q-1.38,2.28-.54,2.28a1.17,1.17,0,0,1,.54.09q0,.09.3.09a9.77,9.77,0,0,0,1.29-.09,10,10,0,0,1,2.75,0h.38c.71-.23.71-1.17,0-2.81a.51.51,0,0,1-.16-.26.32.32,0,0,1,.31-.17,7,7,0,0,1,2,.26.51.51,0,0,1,.38.61,8.63,8.63,0,0,0,.08,2.72q.08.34.45.18l.54-.36a6.92,6.92,0,0,0,.22-2,3.63,3.63,0,0,1,.08-1.32q0-1.21-.84-1.05a.59.59,0,0,1-.68.09,5.07,5.07,0,0,0-1.91-.17.91.91,0,0,1-.76,0,3.13,3.13,0,0,0-1.06,0,1.48,1.48,0,0,1-.84.08c-.15.06-.23-.08-.23-.43s.53-.56,1.6-.44,1.83,0,2.13-.79a1.15,1.15,0,0,1,.23-.44,3.13,3.13,0,0,0,1-1.31.93.93,0,0,0-.08-1c-.15-.18-.4-.2-.76-.09a4,4,0,0,1-2.21.09h-1.14c-.1.06-.25-.15-.46-.61-.1-.12,0-.21.16-.26.61.05,1.16.08,1.67.08.92.06,1.5.09,1.76.09a2.37,2.37,0,0,0,1.52-.17A2.79,2.79,0,0,0,212,11c.15-.11.21-.2.15-.26s-.1-.06-.3,0Zm-6,3.42a.64.64,0,0,0-.15,1,11.54,11.54,0,0,1,2.29.09c.2-.12.33-.44.38-1a11.43,11.43,0,0,0-2.52-.09Zm-2.13.17a3,3,0,0,0-1.52.18,4.21,4.21,0,0,0-.53.17c-.26.06-.51.36-.76.88-.06.35.05.5.3.44h.15a5.53,5.53,0,0,0,1-.53,3.17,3.17,0,0,1,1.37-.17c.21,0,.31-.18.31-.53a.41.41,0,0,0-.31-.44Zm.69,5a.5.5,0,0,0-.08.44c0,.06.08.06.23,0H206c.2.06.25-.09.15-.44-.1-.65-.35-1-.76-1s-.79.21-1,1ZM218.82,6.25a1.39,1.39,0,0,1,1.29,1.58c-.1,1,.1,1.55.61,1.66A1.25,1.25,0,0,0,221.79,9a.93.93,0,0,1,.38-.62q.15-.07.45-.87c.51-1.11,1-1.46,1.45-1.05a2.16,2.16,0,0,1,.08,1,1.85,1.85,0,0,1-.46.7,2.21,2.21,0,0,0-.53.88c-.15.29-.18.47-.08.52a5.24,5.24,0,0,1,.84.18h.53c.36.11.51.29.46.53a2.79,2.79,0,0,1-.76,1.22,2.53,2.53,0,0,1-.84.26,5.66,5.66,0,0,1-1.45,0c-.3,0-.48.21-.53.62s.15.58.46.52a6.86,6.86,0,0,1,2.28.18c0,.06,0,.09.08.09a.38.38,0,0,0,.3.09c.2.11.26.43.15,1-.35.64-.76.91-1.21.79q-.15,0-.84.09a5.69,5.69,0,0,0-1.15.08c-.4.18-.63.64-.68,1.4a5.33,5.33,0,0,1-2.59,3.77c-1,.47-1.6.32-1.75-.44a7.65,7.65,0,0,0-.3-1.22c-.1-.18-.1-.29,0-.35a.62.62,0,0,1,.53.08c.15.18.45.21.91.09a3.74,3.74,0,0,0,2.29-2.8c0-.41-.28-.56-.84-.44a6.57,6.57,0,0,1-2,.44.7.7,0,0,1-.76-.44,1.33,1.33,0,0,1-.08-1c0-.3.25-.41.61-.35a1.08,1.08,0,0,0,.53-.18c.41-.29.72-.41.92-.35a1.72,1.72,0,0,0,.61-.17,5.66,5.66,0,0,1,.83-.27.6.6,0,0,0,.61-.35,1.65,1.65,0,0,0,0-.7c-.15-.18-.38-.18-.68,0a5.63,5.63,0,0,1-1.75.35q-.92.18-1,0a2.28,2.28,0,0,1-.76-1.4c.1-.59.35-.79.76-.61a.91.91,0,0,0,.83-.09,10.63,10.63,0,0,0,1.07-.62,1.08,1.08,0,0,0,.53-1.05.51.51,0,0,1-.22-.35,8.17,8.17,0,0,1-.54-.79.66.66,0,0,1-.3-.7.6.6,0,0,1,.61-.35Zm7.54,1.84c.2.35.55.38,1.06.09a10.71,10.71,0,0,1,1.91-.09,13.92,13.92,0,0,1,2,.09.75.75,0,0,0,.84,0c.2-.12.38-.06.53.17a.73.73,0,0,1-.08.71A31.33,31.33,0,0,1,230.16,12q-.67.69,0,1.14a6.14,6.14,0,0,1,1.3,1.14.52.52,0,0,0,.38.35,2.67,2.67,0,0,1,.83.87,3.42,3.42,0,0,1,.08,1.32,1,1,0,0,1-.76.61,11.69,11.69,0,0,0-1.75.44,7.21,7.21,0,0,1-2.29,1c-.5,0-.68.32-.53,1,0,1.92-.28,3-.84,3.15-.3,0-.48.06-.53.18-.31.06-.46-.06-.46-.35a10.76,10.76,0,0,1,0-2.63c.11-1.93.21-3.24.31-4a5.83,5.83,0,0,0,.08-2.1,2.56,2.56,0,0,1-.16-1.05,4.54,4.54,0,0,1,.16-1.32,2.21,2.21,0,0,0-.24-1.57,1.74,1.74,0,0,1-.22-1.41c.15-.52.43-.72.84-.61Zm2.35,1.66a2.66,2.66,0,0,1-1.29.09c-.1,0-.23.12-.38.36l-.15.17a7.2,7.2,0,0,0-.23.79.51.51,0,0,0,.08.35c.2.47.61.53,1.21.17a3.59,3.59,0,0,0,.84-.78,1.82,1.82,0,0,1,.61-.62c.15-.11.15-.26,0-.44a.92.92,0,0,0-.69-.09Zm-.15,4.39a1.2,1.2,0,0,0-.91,0,.58.58,0,0,0-.3.7,5.79,5.79,0,0,0,.07,1.75.57.57,0,0,0,.38.53,2.91,2.91,0,0,0,2.74-1.41,3.67,3.67,0,0,0-2-1.57ZM222,16.5c-.16.18-.18.65-.08,1.41a3.14,3.14,0,0,0,.61,1.31q.52.71,1.29-.09a6.82,6.82,0,0,0,.76-1.4c.05-.12.05-.2,0-.26s0-.09-.07-.09a.49.49,0,0,1-.38-.17A4,4,0,0,0,222,16.5Zm30.6-10.33q.54.07.69.87c.2,1.46.13,2.25-.23,2.37a4,4,0,0,0-.3,1.75,19.53,19.53,0,0,0,.08,3.24A5,5,0,0,1,252.7,16a5.43,5.43,0,0,0,0,1.93c0,.11,0,.17.08.17a14.2,14.2,0,0,1,0,3.59.41.41,0,0,1-.31.18c-.05.06-.12,0-.23-.09a2.86,2.86,0,0,1-.6-2,6.31,6.31,0,0,1-.16-1.14c0-.7-.07-1.17-.07-1.4a3.22,3.22,0,0,1-.08-1.32.47.47,0,0,0-.68-.35,1.79,1.79,0,0,1-.46.17c-.76.36-1.3.62-1.6.79s-.46,0-.31-.7c.21-1,.36-1.89.46-2.71a4.88,4.88,0,0,1,.08-1.49,4.88,4.88,0,0,0,.07-1.58c-.15-1.11,0-1.84.31-2.19a.77.77,0,0,1,1,.44,4.51,4.51,0,0,1-.08,2.71,3.7,3.7,0,0,0-.38,2.2c.2.4.71.34,1.52-.18a9.37,9.37,0,0,0,.31-3,7.59,7.59,0,0,1-.08-1.23c.05-.58.1-1.08.16-1.49a1.34,1.34,0,0,1,1-1.13Zm-10.81.52a1,1,0,0,1,1.07.88,5.55,5.55,0,0,1-.23,2.18,4.52,4.52,0,0,0-.23,1.23,8.24,8.24,0,0,0,0,1.58,8.89,8.89,0,0,1-.15,2.89,3,3,0,0,0-.15.53,3.1,3.1,0,0,0-.15,1.23c-.21,1.81-.94,2.95-2.21,3.41a4.38,4.38,0,0,1-2.59.44.7.7,0,0,1-.69-.61c0-.29.23-.53.69-.7a6.87,6.87,0,0,0,2.51-1.32,4.24,4.24,0,0,0,1.52-2.54.5.5,0,0,0-.45-.53,2.76,2.76,0,0,0-.92.62,6.35,6.35,0,0,1-2.13,1.57q-1,.54-1.14.09a2.25,2.25,0,0,1,.68-2,5.41,5.41,0,0,0,1.3-2.19,3.75,3.75,0,0,1,.15-1,4.32,4.32,0,0,0-.3-1.93,3.45,3.45,0,0,1-.31-2,2.35,2.35,0,0,1,.54-1.22c.4-.24.65-.09.76.43a.49.49,0,0,0,.07.44,3.54,3.54,0,0,1,.08.44,15.3,15.3,0,0,1,0,4.82,2.93,2.93,0,0,0-.15,1c.05.24.25.29.61.18A5.64,5.64,0,0,0,241.13,13a7.67,7.67,0,0,0,.07-3.25A3.23,3.23,0,0,1,241.05,8c.15-.76.41-1.21.76-1.32ZM247,7c.2-.29.48-.24.84.18a8.12,8.12,0,0,1-.08,2.1,9.73,9.73,0,0,0-.3,3.07,10.13,10.13,0,0,1-.08,1.22,22.11,22.11,0,0,0-.3,4.47,13.87,13.87,0,0,1-.38,2.37c-.11.23-.18.35-.23.35s-.13-.12-.23-.35a5.05,5.05,0,0,1-.3-3.16,4.79,4.79,0,0,0,.22-1.49c-.1-.41-.33-.55-.68-.44a2.54,2.54,0,0,1-.54.44,10.12,10.12,0,0,0-1,.79c-.35.29-.53.27-.53-.09a2.38,2.38,0,0,1,.08-1.31,12.89,12.89,0,0,0,.45-2.89,8.64,8.64,0,0,0,0-2.46,2.43,2.43,0,0,1,.39-2c.15-.24.3-.32.45-.26s.33.26.38.61a28.9,28.9,0,0,1-.23,4.29c-.2.88-.1,1.32.31,1.32.61-.12.94-.67,1-1.67a4,4,0,0,1,.08-1.4.76.76,0,0,1,0-.52,3.08,3.08,0,0,0,.07-.62A6.37,6.37,0,0,1,247,7Zm19.19-.18a1.94,1.94,0,0,1,.76.62c.1.47.53.7,1.3.7a16.12,16.12,0,0,1,3.73.44,2.5,2.5,0,0,0,1.6.17q.82-.18,1.14.27a2.08,2.08,0,0,1-.53,1.66,10.18,10.18,0,0,0-1.3,3.16,2.45,2.45,0,0,1,.08,1.31,1.41,1.41,0,0,1-1.53.35,13.3,13.3,0,0,0-1.9-.09q-1.14-.09-1.83-.09c-.4.06-.61.41-.61,1.06v3.77A14.31,14.31,0,0,1,267,22a2.18,2.18,0,0,1-1.22.79c-.36-.12-.51-.3-.46-.53a8.83,8.83,0,0,0,.08-1.49,10.09,10.09,0,0,1,.07-2.46c.16-1.75,0-2.68-.37-2.8a6.32,6.32,0,0,0-1.91.09,4.49,4.49,0,0,1-1.75.52,12.19,12.19,0,0,0-3,1.32c-.31.17-.46.08-.46-.26A2.46,2.46,0,0,1,259,15.1a3.84,3.84,0,0,0,.68-3.24c-.15-.53-.43-.82-.84-.88s-.76-.52-.91-1.23c-.1-.23.05-.37.46-.43a24.5,24.5,0,0,0,2.74-.44c.91-.23,2.13-.47,3.65-.7a1.05,1.05,0,0,0,.92-.7,1,1,0,0,1,.53-.62Zm4,3.25c-.15,0-.51,0-1.07-.09a2.28,2.28,0,0,1-.76-.09c-.51-.06-.84.06-1,.35a3.55,3.55,0,0,0-.23,2.54c.06.41,1.32.59,3.81.53.51.29.94-.56,1.29-2.54-.15-.41-.83-.64-2.05-.7Zm-4.57.43c-.15-.34-.45-.46-.91-.34a3.06,3.06,0,0,1-1.15.17,4.7,4.7,0,0,0-2.05,1.31,4,4,0,0,0-.53,1.58c.05.59.35.85.91.79a9.09,9.09,0,0,1,2.82-.7c.46,0,.78-.29,1-.88A9.06,9.06,0,0,0,265.57,10.54Z"/><path class="cls-3" d="M287.35,6.78c.1-.06.25,0,.46.08s.3.24.45.18a.88.88,0,0,1,.38.7.27.27,0,0,0-.07.18,1.34,1.34,0,0,0-.08.52,1,1,0,0,1-.46.79,4.63,4.63,0,0,0-.83,2.19A2.41,2.41,0,0,1,286,13.35c-.36.12-.51.26-.46.44,0,.47,0,.73-.15.79s-.15.29.15.52a14.81,14.81,0,0,0,2.36,2.19,2.79,2.79,0,0,0,1.68,1,.72.72,0,0,1,.38.17h.3c.21.18.56.18,1.07,0a18.59,18.59,0,0,1,2.59,0,1.9,1.9,0,0,0,1.29-.35c.26-.17.46-.17.61,0s.05.38-.15.61-.41.62-.61,1a5.51,5.51,0,0,0-.31.53c-.7,1-2.1,1.54-4.18,1.66-.66.23-1.68-.61-3.05-2.54a36.24,36.24,0,0,0-2.59-3.16,5.83,5.83,0,0,1-1.44-2.27,2.91,2.91,0,0,0-.92-1.06c-.3-.11-.51.12-.61.7a1.15,1.15,0,0,0-.08.44,1.06,1.06,0,0,0-.07.27,2.65,2.65,0,0,0-.15.87,4,4,0,0,1-1.3,1.93,1.16,1.16,0,0,1-.3.26c-.15.06-.23.15-.23.26-.3.47-.61.5-.91.09a1.7,1.7,0,0,1-.54-1.4,5.75,5.75,0,0,0-.15-1.14v-.17c-.1-.59.05-.85.46-.79h.68c.87,0,1.7-.67,2.51-2q.31-.53-.3-1.14a1.79,1.79,0,0,1-.46-1q-.23-.87,0-1.14l.23-.18a4.66,4.66,0,0,1,.53-.43c.31,0,.51.26.62.79a6.71,6.71,0,0,0,1.06,2.71,5.16,5.16,0,0,1,.61,1.23l.15.18c.21.64.49.75.84.34a4.32,4.32,0,0,0,.92-1.92,3.66,3.66,0,0,1,.15-.88,3.23,3.23,0,0,0,.15-.7,1,1,0,0,0-.3-1c-.51-.18-.67-.44-.46-.79a6.33,6.33,0,0,1,1.75-1.49ZM291,9.23c-.5.23-.63.52-.38.88.16.58-.48,1.63-1.9,3.15-.41.12-.61.23-.61.35s.1.09.46.09.66.12.91.18a1.62,1.62,0,0,0,2.06-1.06,16.5,16.5,0,0,1,1.14-1.75,1.19,1.19,0,0,1,.15-.26,1.2,1.2,0,0,0,.08-1.23A2.91,2.91,0,0,0,291,9.23ZM308.44,7a2.53,2.53,0,0,0,1.37,0,11.19,11.19,0,0,1,2.9.18,1.63,1.63,0,0,0,.76.26.8.8,0,0,0,.53,0c.3.11.38.38.23.79q-.69,1.48-2.82,1a24.08,24.08,0,0,0-4.34-.44c-.25,0-.48.41-.68,1.23-.21.58.3.67,1.52.26a17.34,17.34,0,0,1,4.8.35,1,1,0,0,1,.37.09h.31c.31.29.05.76-.76,1.4a6.94,6.94,0,0,1-2.21.27,5.09,5.09,0,0,0-1.37,0,.61.61,0,0,0,0,1,7.26,7.26,0,0,1,3.5.44,1.4,1.4,0,0,0,.69.35.34.34,0,0,1,.08.35c-.21.29-.38.56-.54.79a1.56,1.56,0,0,1-1.6.43c-.61-.11-.91,0-.91.36a2.84,2.84,0,0,0,.08.7c0,.64.07,1,.07,1a.46.46,0,0,0,.23.35.2.2,0,0,0,.15.09,4.83,4.83,0,0,1,1.68.44,5.88,5.88,0,0,0,1.52.26,11.9,11.9,0,0,1,1.37-.09,1.63,1.63,0,0,0,.92-.26.27.27,0,0,1,.3,0,.85.85,0,0,1,.08.35,6.78,6.78,0,0,1-2,2.72,4.36,4.36,0,0,1-2.44-.18,9.62,9.62,0,0,0-3.51-1.22,46.32,46.32,0,0,0-6.77.87,12.77,12.77,0,0,1-1.37.44,11.05,11.05,0,0,1-1.22.09c-.25-.3-.28-.88-.08-1.76.1-.35.49-.67,1.15-1,.25,0,.48-.29.68-.87a40.4,40.4,0,0,0,.38-4.82,2.54,2.54,0,0,1,.08-1.41,2.33,2.33,0,0,0-.76-2.19,1.38,1.38,0,0,1,.07-1.49c1-.58,1.5-.76,1.6-.52s.43.14,1.14-.09a24.88,24.88,0,0,1,4.8-.44Zm-3.73,2a7.74,7.74,0,0,1-1,.43h-.15a2.06,2.06,0,0,0-.46,1.14,11.65,11.65,0,0,1-.07,1.58c.1.18.32.15.68-.09,0,0,.15-.14.3-.44l.16-.17a6.73,6.73,0,0,1,.68-1,1.47,1.47,0,0,0,.08-.17,4.25,4.25,0,0,0,.3-.7c.11-.41-.07-.61-.53-.61Zm1.6,3.41-.84.26a1.72,1.72,0,0,1-.46.09,6.09,6.09,0,0,0-2.13,1c-.05.64-.1,1.17-.15,1.57a5.62,5.62,0,0,0-.08,1.58,9,9,0,0,1-.07,1.06v.34c-.1.29,0,.41.23.35a2.4,2.4,0,0,1,.68-.08,3.34,3.34,0,0,0,1.37-.35,2,2,0,0,0,.69-1,4.34,4.34,0,0,1,.3-1,.45.45,0,0,1,.16-.26,1.53,1.53,0,0,0,.15-.27,4.82,4.82,0,0,0-2,.44c-.61.23-.92-.17-.92-1.22-.05-.42.16-.65.61-.71a4.32,4.32,0,0,0,1.22-.35c.3-.05.58-.11.84-.17a2.83,2.83,0,0,1,.76-.27c.2,0,.41-.26.61-.79-.15-.29-.48-.37-1-.26ZM308,15.8a3.51,3.51,0,0,1-.38.62l-.61,1c-.15.35-.05.55.31.61a6.91,6.91,0,0,1,1.37.09c.41,0,.53-.2.38-.62a3.31,3.31,0,0,1-.38-1.57c-.2-.3-.43-.35-.69-.18ZM330.6,6.69a1.5,1.5,0,0,1,1.45,1c0,.59.4.79,1.22.62h1.21a2,2,0,0,0,1.14,0q1-.18.84.87l-.15.35a2.92,2.92,0,0,1-.45.88c-.21.29-.39.53-.54.7a1.59,1.59,0,0,1-1.06.44c-.46,0-.61-.2-.46-.61a8.88,8.88,0,0,0,.53-1.15,4.8,4.8,0,0,0-1.6-.61l-1.06.18c-.71.29-1.2.38-1.45.26a3.23,3.23,0,0,0-1.6.17,3.73,3.73,0,0,0-1.22,1.5c0-.06.15-.09.46-.09a4.19,4.19,0,0,0,1.29-.26,4.75,4.75,0,0,1,2.74-.09,1.78,1.78,0,0,0,.76.17.63.63,0,0,1,.39.62c-.05.29-.21.44-.46.44a37.85,37.85,0,0,1-4.8.52c-.51,0-.73-.26-.68-.79-.87.18-1.22,0-1.07-.52a4.14,4.14,0,0,0,.15-1.67c-.05-.41.1-.64.46-.7,2.08-.29,3.15-.73,3.2-1.31a1,1,0,0,1,.76-.88ZM323,9.23c0,.06-.18.21-.54.44.05,0,0,0-.07.08a.8.8,0,0,0-.23.88c.1.35.2.47.3.35a4.16,4.16,0,0,0,1.3-1.23c.05-.34-.21-.52-.76-.52Zm.76,3.59a1.33,1.33,0,0,0-1.14,0c-.56.41-.82.67-.77.79a7.68,7.68,0,0,1,.08,1.23.8.8,0,0,0,.08.44c.1.11.22.08.38-.09s.2-.2.45-.44a11.75,11.75,0,0,0,1.07-1.23.49.49,0,0,0-.15-.7Zm9.9.62c.3.17.5.2.61.08a.38.38,0,0,1,.15.53,2.73,2.73,0,0,1-.92,1,2.09,2.09,0,0,1-1,.26h-.46c-.21,0-.33.24-.38.71v.35a4.39,4.39,0,0,0-.16,1.13,4.19,4.19,0,0,0,.08.88c0,.35.25.53.76.53a3,3,0,0,1,.92.09,2.47,2.47,0,0,1,.6.08,2.51,2.51,0,0,0,3-1.22c.11-.12.21-.15.31-.09a.38.38,0,0,1,.15.35.27.27,0,0,0-.07.17c-.16.76-.18,1.2-.08,1.32a2.35,2.35,0,0,1-1.07,1.93,2.89,2.89,0,0,1-2.51.08,5.68,5.68,0,0,0-3.12-.78c-.51-.12-.69-.85-.53-2.2,0-.35.1-.81.15-1.4a15.18,15.18,0,0,1,.07-1.58c0-.23-.15-.35-.45-.35A11.29,11.29,0,0,0,327,16c-.51.17-.87-.15-1.07-1-.15-.59.05-.91.61-1a2,2,0,0,0,1-.26,5.88,5.88,0,0,1,1.45-.35h.76a2.7,2.7,0,0,1,.53-.09,8.72,8.72,0,0,1,3.43.09Zm-5.49,3.06a8.48,8.48,0,0,1-1.06.71A8,8,0,0,0,325,19a.89.89,0,0,1-.53.26,1,1,0,0,0-.23,1.49,1.29,1.29,0,0,0,1.68,0,12.15,12.15,0,0,0,2.43-2.8.83.83,0,0,1,.08-.27c.1-.23.2-.43.3-.61a.43.43,0,0,0-.07-.53.48.48,0,0,0-.54,0ZM325,11.6c-.4-.47-.07-1.32,1-2.54a1.8,1.8,0,0,0,.45-1.58c-.1-.29-.35-.38-.76-.26A1.13,1.13,0,0,1,324.58,7a1.83,1.83,0,0,0-1.67.09A1.27,1.27,0,0,1,321.23,7c-.86-.06-1.29.56-1.29,1.84a7.75,7.75,0,0,1,.68,3.16,43.47,43.47,0,0,1-.22,6.39,5,5,0,0,0,.07,1.49,7.15,7.15,0,0,0,.46,1.76,5.43,5.43,0,0,0,.91-3.07,2.34,2.34,0,0,1,.84-2,6.55,6.55,0,0,0,1.3-1.22,7.25,7.25,0,0,1,.83-.7,2.78,2.78,0,0,0,1.07-1.32A2.38,2.38,0,0,0,325,11.6Z"/><path class="cls-3" d="M95.65,38.77c1.22.14,1.83.77,1.83,1.88s.14,1.85.86,2A1.9,1.9,0,0,0,99.86,42c0-.21.18-.45.54-.73a2.65,2.65,0,0,0,.64-1c.73-1.33,1.41-1.75,2.06-1.26a2.24,2.24,0,0,1,.11,1.15,2.27,2.27,0,0,1-.65.84,2.54,2.54,0,0,0-.76,1c-.21.35-.25.56-.11.63a8.58,8.58,0,0,1,1.19.21h.76c.5.13.72.34.65.62a3.33,3.33,0,0,1-1.08,1.46,4.46,4.46,0,0,1-1.19.32,9.7,9.7,0,0,1-2,0c-.44,0-.69.24-.76.73s.22.69.65.62a11.82,11.82,0,0,1,3.24.21.1.1,0,0,0,.11.11.63.63,0,0,0,.43.1c.28.14.36.52.22,1.15-.51.76-1.09,1.08-1.73.94-.15,0-.54,0-1.19.1a8,8,0,0,0-1.62.11c-.58.21-.9.76-1,1.67a6.5,6.5,0,0,1-3.67,4.49c-1.44.55-2.27.38-2.48-.53a8.49,8.49,0,0,0-.44-1.46c-.14-.21-.14-.34,0-.41a1,1,0,0,1,.76.1c.22.21.65.24,1.3.1,1.94-.83,3-2,3.24-3.34,0-.49-.4-.66-1.19-.52a10.5,10.5,0,0,1-2.81.52c-.58,0-.94-.17-1.08-.52a1.35,1.35,0,0,1-.11-1.15c.07-.34.36-.49.87-.41a2,2,0,0,0,.75-.21,2,2,0,0,1,1.3-.42,2.61,2.61,0,0,0,.87-.21,9,9,0,0,1,1.18-.31.89.89,0,0,0,.87-.42,1.67,1.67,0,0,0,0-.83c-.22-.21-.54-.21-1,0a9.8,9.8,0,0,1-2.48.41c-.87.14-1.33.14-1.41,0a2.68,2.68,0,0,1-1.08-1.67c.15-.7.51-.94,1.08-.73a1.47,1.47,0,0,0,1.19-.1,15.75,15.75,0,0,0,1.51-.73,1.25,1.25,0,0,0,.76-1.26A.66.66,0,0,1,96,41c-.36-.42-.61-.73-.76-.94a.75.75,0,0,1-.43-.84.88.88,0,0,1,.87-.42ZM106.34,41c.29.41.79.45,1.51.1a18.76,18.76,0,0,1,2.7-.1,24.49,24.49,0,0,1,2.92.1,1.2,1.2,0,0,0,1.19,0,.57.57,0,0,1,.76.21c.14.21.1.49-.11.84a40.12,40.12,0,0,1-3.57,3.44c-.65.55-.65,1,0,1.36a8.35,8.35,0,0,1,1.84,1.35.68.68,0,0,0,.54.42,3.61,3.61,0,0,1,1.19,1.05,3.63,3.63,0,0,1,.11,1.56,1.35,1.35,0,0,1-1.09.73,21.64,21.64,0,0,0-2.48.52,11.53,11.53,0,0,1-3.24,1.15c-.72,0-1,.38-.76,1.15,0,2.3-.39,3.55-1.19,3.76q-.64,0-.75.21c-.44.07-.65-.08-.65-.42a10.18,10.18,0,0,1,0-3.13c.14-2.3.29-3.86.43-4.7a5.81,5.81,0,0,0,.11-2.51,2.71,2.71,0,0,1-.22-1.25,4.65,4.65,0,0,1,.22-1.56,2.34,2.34,0,0,0-.33-1.88,1.77,1.77,0,0,1-.32-1.67c.22-.63.61-.87,1.19-.73Zm3.35,2a4.46,4.46,0,0,1-1.84.1q-.21,0-.54.42l-.21.21a6.31,6.31,0,0,0-.33.94.6.6,0,0,0,.11.42c.29.55.87.62,1.73.21a5.37,5.37,0,0,0,1.19-.94,2.33,2.33,0,0,1,.86-.73c.22-.14.22-.32,0-.53a1.45,1.45,0,0,0-1-.1Zm-.21,5.22a2.06,2.06,0,0,0-1.3,0,.66.66,0,0,0-.43.83,6,6,0,0,0,.1,2.09q0,.42.54.63a4.42,4.42,0,0,0,3.89-1.67c-.29-.63-1.22-1.25-2.8-1.88ZM100.18,51c-.21.21-.25.76-.11,1.67a3.65,3.65,0,0,0,.87,1.56c.5.56,1.11.53,1.83-.1a8.18,8.18,0,0,0,1.09-1.67c.06-.14.06-.24,0-.31s0-.11-.12-.11a.72.72,0,0,1-.53-.21,6.41,6.41,0,0,0-3-.83ZM151,38.67a1.16,1.16,0,0,1,1,1c.29,1.75.18,2.68-.32,2.82a4,4,0,0,0-.43,2.09,20.15,20.15,0,0,0,.11,3.86,4.86,4.86,0,0,1-.22,1.88,5.53,5.53,0,0,0,0,2.3c0,.13,0,.21.11.21a14.45,14.45,0,0,1,0,4.28.69.69,0,0,1-.44.21c-.07.06-.18,0-.32-.11a3.07,3.07,0,0,1-.86-2.4,6.7,6.7,0,0,1-.22-1.36c-.07-.83-.11-1.39-.11-1.67a3.24,3.24,0,0,1-.11-1.56c-.14-.42-.47-.56-1-.42a3.3,3.3,0,0,1-.65.21c-1.08.42-1.83.73-2.27.94s-.64,0-.43-.84c.29-1.18.51-2.26.65-3.23a4.77,4.77,0,0,1,.11-1.78,5.21,5.21,0,0,0,.11-1.88c-.22-1.32-.08-2.19.43-2.61a1.18,1.18,0,0,1,1.4.53,4.58,4.58,0,0,1-.1,3.23q-.87,1.88-.54,2.61c.28.49,1,.42,2.15-.21a9.6,9.6,0,0,0,.44-3.55,7.65,7.65,0,0,1-.11-1.46c.07-.7.14-1.28.22-1.77a1.73,1.73,0,0,1,1.4-1.36Zm-15.34.63a1.41,1.41,0,0,1,1.51,1,5.82,5.82,0,0,1-.32,2.61,4.24,4.24,0,0,0-.33,1.46,8.34,8.34,0,0,0,0,1.88,8.9,8.9,0,0,1-.21,3.45,2.37,2.37,0,0,0-.22.62,3.28,3.28,0,0,0-.22,1.46,4.42,4.42,0,0,1-3.13,4.07,7.33,7.33,0,0,1-3.67.53c-.58-.08-.9-.32-1-.73s.32-.63,1-.84a10.28,10.28,0,0,0,3.56-1.57,5,5,0,0,0,2.17-3c0-.35-.22-.56-.65-.63a4,4,0,0,0-1.3.73,9.31,9.31,0,0,1-3,1.88c-.94.42-1.48.45-1.63.1a2.43,2.43,0,0,1,1-2.4A6.24,6.24,0,0,0,131,47.33a3.7,3.7,0,0,1,.22-1.25,4.36,4.36,0,0,0-.43-2.29,3.53,3.53,0,0,1-.43-2.41,2.73,2.73,0,0,1,.75-1.46c.58-.28.94-.1,1.08.52a.51.51,0,0,0,.11.53,3.41,3.41,0,0,1,.11.52,15.11,15.11,0,0,1,0,5.74,2.88,2.88,0,0,0-.22,1.15c.07.28.36.34.87.21a6.72,6.72,0,0,0,1.61-1.78,7.8,7.8,0,0,0,.12-3.86,3.22,3.22,0,0,1-.22-2.09c.22-.9.58-1.43,1.08-1.56Zm7.35.41c.28-.34.68-.28,1.18.21a8.43,8.43,0,0,1-.11,2.51,9.49,9.49,0,0,0-.42,3.65,10.25,10.25,0,0,1-.11,1.46,22,22,0,0,0-.44,5.33,13.69,13.69,0,0,1-.54,2.82c-.14.27-.25.41-.32.41s-.18-.14-.32-.41a5.17,5.17,0,0,1-.44-3.76,4.81,4.81,0,0,0,.33-1.78.7.7,0,0,0-1-.52,4,4,0,0,1-.75.52,12.36,12.36,0,0,0-1.41.94c-.5.35-.75.32-.75-.1a2.33,2.33,0,0,1,.11-1.57,13.1,13.1,0,0,0,.64-3.44,9,9,0,0,0,0-2.93,2.54,2.54,0,0,1,.55-2.4c.21-.28.42-.38.64-.31s.47.31.54.73a29.82,29.82,0,0,1-.32,5.12c-.29,1-.15,1.56.43,1.56q1.29-.21,1.41-2a4.12,4.12,0,0,1,.1-1.67,1,1,0,0,1,0-.63,2.64,2.64,0,0,0,.11-.73,6.49,6.49,0,0,1,.87-3Zm34.24-1.25c1.23.35,1.95.87,2.16,1.57s.83,1,1.84.83a23,23,0,0,1,4.86.84,1,1,0,0,0,1.09,0,2.58,2.58,0,0,1,1.29-.21,1.48,1.48,0,0,0,1.19-.11.44.44,0,0,1,.54.21c.07.35,0,.6-.11.73a.83.83,0,0,0-.54.94A3.48,3.48,0,0,1,188,44.83a3,3,0,0,1-2.92-.31,13,13,0,0,0-7.45-1.88q-2.49-.11-9,2.19c-2.31.83-3.38.31-3.24-1.57q0-1.35,1.29-1.14a.89.89,0,0,0,1.19-.11,9.67,9.67,0,0,1,3.68-.63c2.23,0,3.56-.62,4-1.87q.33-1.47,1.62-1ZM178.4,44a1.12,1.12,0,0,0-1.19-.73,2,2,0,0,0-1.08,1.26,7,7,0,0,1-4.43.94c-1.08.07-1.55.83-1.4,2.29.65,2.79.07,4.94-1.73,6.47a11.56,11.56,0,0,0-2,2.09c-.22.35-.11.52.32.52a1.9,1.9,0,0,1,.87.32H168a2.23,2.23,0,0,0,1.62-.53q2.7-2.7,2.49-4.07a3.67,3.67,0,0,1,.54-2,2,2,0,0,0,.21-1q0-.84.54-1.05h.22a4.31,4.31,0,0,0,1.51-.52c.65-.21,1,0,1.08.73q-.11,1.45-.21,2.82c-.22,2.85-.33,4.91-.33,6.16a.6.6,0,0,0,.54.63q.87.09,1.08-.42a1.27,1.27,0,0,1,.76-.73,2.75,2.75,0,0,0,.54-1.67,46.3,46.3,0,0,1-.11-5.95c-.07-1.39.43-2.06,1.51-2,1.73,0,2.49.35,2.27,1.05a24.35,24.35,0,0,1,.22,4.07,4.73,4.73,0,0,0,.1,2,9,9,0,0,1,.12,1.78c.21.62.71.59,1.51-.11a2.8,2.8,0,0,0,.1-1.46c0-.63-.14-2.06-.43-4.28a6.35,6.35,0,0,1,.65-3.65c.22-1.33-.11-2-1-1.88a1,1,0,0,1-.86,0,3.39,3.39,0,0,0-1.63-.21,9.85,9.85,0,0,1-1.83-.21q-.77,0-.87-.63Zm36-4.48a2.63,2.63,0,0,1,1.08.73c.14.55.76.83,1.84.83a27.35,27.35,0,0,1,5.29.52,4.16,4.16,0,0,0,2.27.21c.79-.14,1.33,0,1.62.32a2.23,2.23,0,0,1-.75,2,11.13,11.13,0,0,0-1.84,3.76,2.5,2.5,0,0,1,.11,1.56,2.23,2.23,0,0,1-2.16.42,23.59,23.59,0,0,0-2.71-.1c-1.08-.08-1.94-.11-2.59-.11s-.86.49-.86,1.25v4.49a13.69,13.69,0,0,1-.11,2.19,3.11,3.11,0,0,1-1.73.94c-.51-.14-.72-.34-.65-.62a8.34,8.34,0,0,0,.11-1.78,10,10,0,0,1,.11-2.92c.22-2.09,0-3.2-.54-3.34a11.35,11.35,0,0,0-2.7.1,7.28,7.28,0,0,1-2.49.63,18.73,18.73,0,0,0-4.21,1.57c-.43.2-.65.1-.65-.32a2.75,2.75,0,0,1,1.29-2.5,4,4,0,0,0,1-3.86,1.41,1.41,0,0,0-1.19-1.05A1.76,1.76,0,0,1,202.6,43c-.14-.28.08-.45.65-.52s1.73-.18,3.89-.52q2-.42,5.18-.84a1.49,1.49,0,0,0,1.31-.83,1.23,1.23,0,0,1,.75-.73ZM220,43.37c-.22,0-.72,0-1.52-.11a4,4,0,0,1-1.08-.1c-.71-.07-1.18.07-1.4.42a3.58,3.58,0,0,0-.32,3q.1.74,5.4.63,1.08.52,1.83-3c-.21-.49-1.18-.76-2.91-.83Zm-6.49.52q-.31-.63-1.29-.42a4.73,4.73,0,0,1-1.62.21,6.76,6.76,0,0,0-2.92,1.57,4.24,4.24,0,0,0-.75,1.88c.07.69.5,1,1.29.93a15.09,15.09,0,0,1,4-.83,1.48,1.48,0,0,0,1.41-1,9.25,9.25,0,0,0-.12-2.3Zm38.25-4.49a.8.8,0,0,1,.65.11.62.62,0,0,0,.65.2,1,1,0,0,1,.54.84.31.31,0,0,0-.11.21,1.4,1.4,0,0,0-.11.62,1.14,1.14,0,0,1-.65.94,5,5,0,0,0-1.18,2.61,2.89,2.89,0,0,1-1.73,2.3c-.51.14-.72.31-.65.52,0,.56-.07.87-.22.94s-.21.35.22.63a20.57,20.57,0,0,0,3.35,2.61,4.29,4.29,0,0,0,2.38,1.15,1.16,1.16,0,0,1,.54.2h.43a1.81,1.81,0,0,0,1.51,0,32.16,32.16,0,0,1,3.68,0,3.12,3.12,0,0,0,1.83-.41q.54-.32.87,0c.14.21.07.45-.22.73a14.35,14.35,0,0,0-.87,1.15,4.48,4.48,0,0,0-.43.62c-1,1.18-3,1.85-5.94,2q-1.41.41-4.32-3a47.11,47.11,0,0,0-3.68-3.76,7.15,7.15,0,0,1-2.05-2.71A3.57,3.57,0,0,0,245,46.6c-.43-.13-.72.14-.86.84A1.14,1.14,0,0,0,244,48a.82.82,0,0,0-.11.31,2.81,2.81,0,0,0-.21,1,4.72,4.72,0,0,1-1.84,2.29,1.71,1.71,0,0,1-.43.32c-.22.07-.32.17-.32.31-.44.55-.87.59-1.3.1a1.86,1.86,0,0,1-.76-1.67,5.39,5.39,0,0,0-.22-1.35v-.21c-.14-.7.08-1,.65-.94h1c1.22,0,2.41-.8,3.56-2.4.29-.42.15-.87-.43-1.36a2,2,0,0,1-.65-1.15q-.32-1,0-1.35l.32-.21a6.11,6.11,0,0,1,.76-.52c.43,0,.72.31.87.94a7.2,7.2,0,0,0,1.51,3.23,6,6,0,0,1,.87,1.46l.21.21c.29.76.68.91,1.19.42a5.05,5.05,0,0,0,1.3-2.3,4.39,4.39,0,0,1,.21-1,3.16,3.16,0,0,0,.22-.84,1,1,0,0,0-.43-1.14c-.73-.21-.94-.53-.65-.94a8.76,8.76,0,0,1,2.48-1.78ZM257,42.32q-1.08.42-.54,1c.22.69-.69,2-2.7,3.76-.58.13-.87.27-.87.41s.15.11.65.11.94.13,1.3.21a2.39,2.39,0,0,0,2.91-1.26,19.34,19.34,0,0,1,1.63-2.08,1.26,1.26,0,0,1,.21-.32c.36-.62.4-1.11.11-1.46a4.78,4.78,0,0,0-2.7-.42ZM289,39.71a4.31,4.31,0,0,0,1.94,0,19.22,19.22,0,0,1,4.11.21,2.61,2.61,0,0,0,1.08.32,1.36,1.36,0,0,0,.75,0c.43.13.54.45.33.94-.65,1.18-2,1.56-4,1.14a41.37,41.37,0,0,0-6.16-.52c-.36,0-.69.49-1,1.46-.29.7.43.8,2.16.32a29,29,0,0,1,6.81.41,1.78,1.78,0,0,1,.53.11h.44c.43.34.07.9-1.08,1.67a12,12,0,0,1-3.14.31,8.73,8.73,0,0,0-1.94,0c-.43.42-.43.8,0,1.15a12.2,12.2,0,0,1,5,.52,2.08,2.08,0,0,0,1,.42.33.33,0,0,1,.11.42c-.29.34-.54.66-.75.94a2.55,2.55,0,0,1-2.28.52q-1.29-.21-1.29.42a3,3,0,0,0,.11.83c.07.76.1,1.15.1,1.15s.12.28.33.42a.29.29,0,0,0,.21.1,8.09,8.09,0,0,1,2.38.52,9.54,9.54,0,0,0,2.16.32,17.62,17.62,0,0,1,1.95-.11,2.55,2.55,0,0,0,1.3-.31.47.47,0,0,1,.43,0,.92.92,0,0,1,.1.42A8.24,8.24,0,0,1,297.9,57a7.15,7.15,0,0,1-3.46-.21,16,16,0,0,0-5-1.46,78.48,78.48,0,0,0-9.62,1.05c-.65.2-1.3.38-1.94.52s-1.3.1-1.73.1c-.36-.35-.4-1-.11-2.09.14-.41.69-.8,1.62-1.14.36,0,.68-.35,1-1.05A41.68,41.68,0,0,0,279.2,47a2.6,2.6,0,0,1,.11-1.67,2.52,2.52,0,0,0-1.08-2.61,1.43,1.43,0,0,1,.11-1.77c1.37-.7,2.12-.91,2.27-.63s.61.18,1.62-.1a41.19,41.19,0,0,1,6.81-.53Zm-5.3,2.41c-.29.13-.76.31-1.4.52h-.22a2.24,2.24,0,0,0-.65,1.35,10.21,10.21,0,0,1-.1,1.88c.14.21.46.18,1-.1.07,0,.21-.18.43-.52.07-.08.15-.14.21-.21a7.73,7.73,0,0,1,1-1.15,2.35,2.35,0,0,1,.11-.21,5.14,5.14,0,0,0,.43-.83c.14-.49-.11-.73-.76-.73ZM286,46.19l-1.19.31a2.93,2.93,0,0,1-.65.1,9.23,9.23,0,0,0-3,1.15c-.07.76-.14,1.39-.22,1.88a5.68,5.68,0,0,0-.11,1.88,8.89,8.89,0,0,1-.1,1.25v.42c-.15.35,0,.49.32.42a4.11,4.11,0,0,1,1-.11,5.64,5.64,0,0,0,1.95-.41,2.44,2.44,0,0,0,1-1.15,4.71,4.71,0,0,1,.43-1.15c0-.07.07-.18.22-.31a1.93,1.93,0,0,0,.22-.32,8.22,8.22,0,0,0-2.82.52c-.86.28-1.29-.2-1.29-1.46-.07-.49.22-.76.86-.83a7.79,7.79,0,0,0,1.73-.42l1.19-.21a4.58,4.58,0,0,1,1.08-.31c.29,0,.58-.31.86-.94-.21-.35-.68-.45-1.4-.31Zm2.38,4a6.23,6.23,0,0,1-.54.73L287,52.14c-.21.41-.07.65.43.73a12.15,12.15,0,0,1,1.95.1c.58,0,.76-.24.54-.73a3.44,3.44,0,0,1-.54-1.88A.69.69,0,0,0,288.39,50.15Z"/><path class="cls-3" d="M327.82,39.3a2.15,2.15,0,0,1,2.06,1.14c0,.7.57.94,1.72.74h1.73a3.39,3.39,0,0,0,1.62,0c.94-.14,1.34.2,1.19,1-.07.14-.14.28-.22.42a3.17,3.17,0,0,1-.64,1,10.09,10.09,0,0,1-.76.84A2.51,2.51,0,0,1,333,45c-.65,0-.87-.24-.65-.73a11.17,11.17,0,0,0,.76-1.36,7.22,7.22,0,0,0-2.27-.73c-.58.07-1.09.14-1.51.21a3.66,3.66,0,0,1-2.06.31A5.29,5.29,0,0,0,325,43a4.82,4.82,0,0,0-1.73,1.77c0-.07.22-.1.65-.1a6.71,6.71,0,0,0,1.84-.31,8.13,8.13,0,0,1,3.89-.11,3,3,0,0,0,1.08.21.75.75,0,0,1,.54.73.59.59,0,0,1-.65.52,60.65,60.65,0,0,1-6.81.63c-.72,0-1-.31-1-.94-1.22.21-1.73,0-1.51-.63a4.05,4.05,0,0,0,.21-2,.66.66,0,0,1,.65-.83q4.44-.52,4.54-1.57c.07-.49.43-.83,1.08-1Zm-10.8,3c0,.07-.25.25-.76.53.07,0,0,0-.11.1a.86.86,0,0,0-.32,1c.14.42.29.56.43.42A5.69,5.69,0,0,0,318.1,43q.11-.63-1.08-.63Zm1.08,4.28a2.15,2.15,0,0,0-1.62,0c-.79.49-1.15.8-1.08.94a7.8,7.8,0,0,1,.11,1.46.88.88,0,0,0,.1.53c.15.13.33.1.54-.11l.65-.52a14.1,14.1,0,0,0,1.51-1.46.53.53,0,0,0-.21-.84Zm14,.73c.44.21.72.25.87.11a.4.4,0,0,1,.21.62,3.61,3.61,0,0,1-1.29,1.26,4,4,0,0,1-1.4.31h-.65q-.44,0-.54.84v.41a4.64,4.64,0,0,0-.22,1.36,4.3,4.3,0,0,0,.11,1q0,.63,1.08.63a4.54,4.54,0,0,1,1.29.11,3.69,3.69,0,0,1,.87.1,3.88,3.88,0,0,0,4.21-1.46.36.36,0,0,1,.43-.11.41.41,0,0,1,.22.42.31.31,0,0,0-.11.21c-.21.9-.25,1.43-.11,1.57A2.68,2.68,0,0,1,335.6,57a4.89,4.89,0,0,1-3.56.11,9.18,9.18,0,0,0-4.43-.94c-.73-.14-1-1-.76-2.61.07-.42.14-1,.22-1.67a15.14,15.14,0,0,1,.1-1.88c0-.28-.21-.42-.65-.42a18.45,18.45,0,0,0-3.88.73c-.73.21-1.23-.18-1.52-1.15-.21-.7.08-1.07.87-1.15a3.15,3.15,0,0,0,1.4-.31,10.79,10.79,0,0,1,2.06-.42h1.07a4.58,4.58,0,0,1,.76-.1,14.62,14.62,0,0,1,4.86.1ZM324.37,51a12.21,12.21,0,0,1-1.52.83,11.26,11.26,0,0,0-2.91,2.09,1.37,1.37,0,0,1-.76.31c-.72.56-.83,1.15-.33,1.78a2.1,2.1,0,0,0,2.38,0,15.63,15.63,0,0,0,3.46-3.34.85.85,0,0,1,.11-.32,6.72,6.72,0,0,1,.43-.73.44.44,0,0,0-.11-.62.72.72,0,0,0-.75,0Zm-4.54-5.85q-.87-.82,1.4-3c.65-.77.86-1.4.65-1.88s-.51-.45-1.08-.32a1.77,1.77,0,0,1-1.51-.21,3.12,3.12,0,0,0-2.38.11,2.07,2.07,0,0,1-2.38-.21c-1.22-.07-1.84.66-1.84,2.19a8,8,0,0,1,1,3.76,45.24,45.24,0,0,1-.33,7.62,5.47,5.47,0,0,0,.11,1.77A7.32,7.32,0,0,0,314.1,57a5.79,5.79,0,0,0,1.3-3.65,2.58,2.58,0,0,1,1.19-2.4,9.2,9.2,0,0,0,1.83-1.46,10.86,10.86,0,0,1,1.19-.84,3.53,3.53,0,0,0,1.51-1.56A2.8,2.8,0,0,0,319.83,45.14Z"/><path class="cls-4" d="M96.28,30.77l-.06,1.91H92.7v-.52l2.48-4.9h-1.5q-.5,0-.54,1.08h-.22l0-1.6h3.22v.52l-2.48,4.9h1.72c.31.09.53-.37.65-1.39Zm3.37,1.54h.08q.42,0,.42-.75V29.88H98.3v1.71c0,.5.13.74.44.72h.08v.37H97v-.37h.09c.28,0,.41-.22.41-.72V27.78c0-.45-.13-.67-.41-.67H97v-.37h1.78v.37h-.08c-.31,0-.45.22-.44.67v1.54h1.85v-1.5c0-.47-.15-.71-.46-.71h0v-.37h1.78v.37h-.11c-.29,0-.43.22-.41.67v3.81c0,.5.13.74.43.72h.09v.37H99.65v-.37Zm4.88-5.05h-1.22v2.13h.92c.29.05.42-.17.41-.67h.22v1.9h-.22c0-.47-.14-.69-.5-.67h-.83v1.72c0,.37,0,.54.22.49h.94c.33.05.54-.28.62-1h.22l-.06,1.5H101.9v-.37h.22c.29,0,.44-.2.44-.68V27.78c0-.47-.15-.69-.48-.67H102v-.37h3.06l.07,1.38h-.22c0-.62-.17-.91-.39-.86Zm2.26.67v3.59c-.05.57.13.84.54.79v.37H106v-.37h0c.27,0,.41-.18.41-.6V27.3a.89.89,0,0,0-.43-.19v-.37h1.12l2.28,4.07V27.93c0-.62-.13-.89-.52-.82h-.06v-.37h1.43v.37h-.07c-.33,0-.48.16-.45.49v5.08h-.31l-2.64-4.75ZM115,29.8v.38c-.28,0-.41.2-.39.59v1.42a2.85,2.85,0,0,1-1.46.56c-1.34,0-2-1.09-2.08-3.14.08-1.86.76-2.87,2-3a2.84,2.84,0,0,1,.89.26,1.12,1.12,0,0,0,.32.08.16.16,0,0,0,.15-.12h.16v1.72h-.22c-.18-1-.56-1.48-1.15-1.53-.86.1-1.3,1-1.35,2.61s.51,2.61,1.35,2.73a.86.86,0,0,0,.61-.22V30.77c0-.39-.19-.59-.7-.59V29.8Zm4.38,1-.07,1.91h-3.51v-.52l2.47-4.9h-1.5q-.5,0-.54,1.08H116l0-1.6h3.21v.52l-2.47,4.9h1.71c.32.09.54-.37.65-1.39Zm3.36,1.54h.09c.27,0,.41-.23.41-.75V29.88h-1.84v1.71c0,.5.13.74.43.72h.09v.37h-1.78v-.37h.08q.42,0,.42-.72V27.78c0-.45-.14-.67-.42-.67h-.08v-.37h1.78v.37h-.09c-.3,0-.45.22-.43.67v1.54h1.84v-1.5c0-.47-.15-.71-.45-.71h0v-.37h1.78v.37h-.11c-.29,0-.42.22-.41.67v3.81c0,.5.13.74.43.72h.09v.37h-1.78v-.37Zm2.54-2.51c.09-2,.8-3.1,2.13-3.25,1.24.12,1.91,1.13,2,3-.1,2-.8,3.1-2.1,3.17s-1.93-1.05-2-2.95Zm.83-.45c0,1.95.48,3,1.32,3.07.72-.05,1.11-.87,1.15-2.47-.07-1.89-.51-2.89-1.3-3-.75.1-1.14.9-1.17,2.39Zm6.77-2.24v-.37h1.43v.37h0c-.37,0-.53.26-.5.79v2.39c0,1.59-.54,2.41-1.57,2.46s-1.61-.74-1.62-2.16V27.75c0-.45-.12-.66-.39-.64H130v-.37h1.73v.37h-.08c-.26,0-.39.24-.39.64v2.84c0,1,.33,1.54,1,1.57s1.06-.59,1.09-1.76V28.08c0-.67-.14-1-.46-1Zm7,3.85H140a11.71,11.71,0,0,1-.32,1.72,1.06,1.06,0,0,0-.33,0,1.5,1.5,0,0,1-.37,0l-.59.07c-1.24-.12-1.91-1.13-2-3,.1-1.92.81-3,2.12-3.14a1.77,1.77,0,0,1,.89.3.46.46,0,0,0,.18.07s.08,0,.11-.07h.15l0,1.68h-.22c-.18-1-.55-1.47-1.1-1.5-.86.13-1.31,1-1.35,2.54s.53,2.61,1.41,2.73c.52,0,.91-.46,1.15-1.38Zm3.43-3.7H142v2.13h.91c.29.05.42-.17.41-.67h.22v1.9h-.22c0-.47-.14-.69-.5-.67H142v1.72c0,.37,0,.54.21.49h.94c.33.05.54-.28.63-1H144l-.06,1.5H140.6v-.37h.21c.29,0,.44-.2.44-.68V27.78c0-.47-.15-.69-.48-.67h-.07v-.37h3.06l.07,1.38h-.22c0-.62-.17-.91-.39-.86Zm2.26.67v3.59c0,.57.13.84.54.79v.37h-1.34v-.37h0c.27,0,.41-.18.41-.6V27.3a.89.89,0,0,0-.43-.19v-.37h1.12l2.28,4.07V27.93c.05-.62-.13-.89-.52-.82h-.06v-.37H149v.37h-.07c-.33,0-.48.16-.45.49v5.08h-.31l-2.64-4.75Zm6.36-.71v4.37c0,.53.13.77.47.72h.13v.37h-2v-.37h.19c.29,0,.44-.22.44-.72V27.22h-.68c-.36-.12-.55.25-.58,1.12h-.24l.11-1.79h.17a.31.31,0,0,0,.11.15c0,.05.08.06.15,0h2.65c.1,0,.19,0,.26-.19h.19l.09,1.79h-.22c0-.87-.24-1.24-.6-1.12Zm3.38,2.92v1.45c0,.5.13.74.43.72h.18v.37H153.9v-.37H154q.51.07.48-.72V27.82c0-.47-.14-.71-.45-.71h-.11v-.37h.15a3.08,3.08,0,0,1,.56-.08l.91-.07a1.58,1.58,0,0,1,1.54.67,2.21,2.21,0,0,1,.26,1.08,1.59,1.59,0,0,1-.82,1.54,6.65,6.65,0,0,1,.5,1,5,5,0,0,0,.46.93.89.89,0,0,0,.73.6v.3h-.34a1.2,1.2,0,0,1-1.22-.56,4.46,4.46,0,0,1-.39-.79,8.86,8.86,0,0,0-.59-1.23Zm0-3.14v2.76h.22c.71,0,1.06-.43,1.06-1.38s-.34-1.33-1-1.38Zm5.71,3.47h-1.22l-.21,1.12a1,1,0,0,0,0,.6c.06.1.21.14.46.12H160v.37h-1.47v-.37h.09q.36.07.54-.9l.95-4.56-.06-.26h.82L162,31.45c.11.59.3.88.56.86v.37h-1.8v-.37h.2a.29.29,0,0,0,.28-.15,1.12,1.12,0,0,0,0-.57l-.26-1.12Zm-.11-.52-.52-2.24L159.82,30ZM166.4,31,166,32.68h-3v-.37h.11c.3,0,.46-.2.46-.68V27.78c0-.45-.15-.67-.44-.67H163v-.37h1.89v.37h-.17c-.29,0-.43.22-.42.67v3.93c0,.35.07.5.29.45h.71c.22,0,.47-.3.74-.9l.11-.26Zm4.47,1.31H171c.28,0,.41-.23.41-.75V29.88h-1.84v1.71c0,.5.13.74.43.72H170v.37h-1.78v-.37h.09c.27,0,.41-.22.41-.72V27.78c0-.45-.14-.67-.41-.67h-.09v-.37H170v.37H170c-.3,0-.44.22-.43.67v1.54h1.84v-1.5c0-.47-.15-.71-.45-.71h0v-.37h1.77v.37h-.1c-.29,0-.43.22-.42.67v3.81c0,.5.13.74.44.72h.08v.37h-1.77v-.37Zm2.53-2.51c.09-2,.8-3.1,2.13-3.25,1.24.12,1.91,1.13,2,3-.1,2-.81,3.1-2.11,3.17s-1.93-1.05-2-2.95Zm.83-.45c0,1.95.48,3,1.32,3.07.73-.05,1.11-.87,1.15-2.47-.07-1.89-.5-2.89-1.3-3-.75.1-1.14.9-1.17,2.39Zm4.4,3.29-.13-1.72h.22c.17.95.49,1.42,1,1.42s.6-.33.63-.93a1.93,1.93,0,0,0-.81-1.35,2.58,2.58,0,0,1-1-1.9c0-1,.42-1.5,1.12-1.57a1.54,1.54,0,0,1,.7.22.41.41,0,0,0,.15,0l.09-.07,0,0h.11l.11,1.53h-.22c-.17-.8-.48-1.22-.91-1.27s-.51.27-.54.67a1.61,1.61,0,0,0,.67,1.12,7.4,7.4,0,0,1,.87,1A2.75,2.75,0,0,1,181,31c-.06,1.1-.45,1.67-1.19,1.72-.3,0-.56-.1-.76-.15a1.11,1.11,0,0,0-.2-.11.21.21,0,0,0-.1.15Zm4.45-2.46v1.41q0,.79.48.72h.15v.37h-1.89v-.37h.09q.42.07.39-.57V27.67c0-.4-.11-.58-.39-.56h-.11v-.37a1.84,1.84,0,0,0,.39,0l.5-.07a7.74,7.74,0,0,1,.89,0c1,.05,1.48.67,1.52,1.87s-.51,1.77-1.39,1.79a1.51,1.51,0,0,1-.63-.07Zm0-3.11v2.69a.5.5,0,0,0,.39.08c.52,0,.79-.49.81-1.46s-.3-1.33-.81-1.38a1.07,1.07,0,0,0-.39.07Zm2.67,0v-.37h1.76v.37h-.09c-.3,0-.45.24-.43.71v3.77c0,.5.13.74.43.72h.09v.37h-1.76v-.37h.07c.27,0,.41-.2.41-.68V27.82c0-.47-.12-.71-.41-.71Zm4.67.11v4.37c0,.53.13.77.47.72H191v.37h-2v-.37h.19c.29,0,.44-.22.44-.72V27.22H189c-.37-.12-.56.25-.59,1.12h-.24l.11-1.79h.17a.31.31,0,0,0,.11.15c0,.05.08.06.15,0h2.65c.1,0,.19,0,.26-.19h.2l.08,1.79h-.21c-.05-.87-.25-1.24-.61-1.12Zm4.44,3.25h-1.21l-.22,1.12a.94.94,0,0,0,0,.6c.06.1.21.14.46.12h.06v.37h-1.47v-.37h.08c.25,0,.43-.25.55-.9l.95-4.56-.06-.26h.82l1.11,4.86c.11.59.3.88.56.86v.37h-1.8v-.37h.19a.3.3,0,0,0,.29-.15,1.25,1.25,0,0,0,0-.57l-.27-1.12Zm-.1-.52-.52-2.24L193.76,30ZM200.33,31l-.39,1.68h-3v-.37h.11c.3,0,.45-.2.45-.68V27.78c0-.45-.14-.67-.43-.67H197v-.37h1.89v.37h-.18c-.28,0-.42.22-.41.67v3.93c0,.35.07.5.28.45h.72c.22,0,.46-.3.74-.9l.11-.26Zm4.19-.53h-1.21l-.22,1.12a.94.94,0,0,0,0,.6q.09.15.45.12h.07v.37h-1.48v-.37h.09q.38.07.54-.9l1-4.56-.07-.26h.83l1.1,4.86c.12.59.31.88.57.86v.37h-1.8v-.37h.19a.28.28,0,0,0,.28-.15,1,1,0,0,0,0-.57l-.26-1.12Zm-.11-.52-.52-2.24L203.41,30Zm3.52-2.69v2.13h.78c.35.05.51-.17.48-.67h.21v1.9h-.21c0-.47-.12-.69-.39-.67h-.87v1.53c0,.63.09.9.37.83h.11v.37h-1.65v-.37h.08q.33,0,.33-.57V27.9c0-.58-.12-.85-.35-.83h-.06v-.33h2.8v1.34h-.2c0-.57-.13-.84-.35-.82Zm3.67,0v2.13h.78c.35.05.5-.17.47-.67h.22v1.9h-.22c0-.47-.11-.69-.39-.67h-.86v1.53c0,.63.09.9.37.83h.1v.37h-1.65v-.37h.09q.33,0,.33-.57V27.9c0-.58-.12-.85-.35-.83h-.07v-.33h2.8v1.34H213c0-.57-.13-.84-.35-.82Zm2.41-.15v-.37h1.75v.37h-.08c-.31,0-.45.24-.44.71v3.77c0,.5.13.74.44.72h.08v.37H214v-.37h.06c.28,0,.41-.2.41-.68V27.82c0-.47-.12-.71-.41-.71Zm5.7,3.89-.39,1.68h-3v-.37h.11c.3,0,.45-.2.45-.68V27.78c0-.45-.14-.67-.43-.67h-.11v-.37h1.89v.37h-.18c-.29,0-.42.22-.41.67v3.93c0,.35.07.5.28.45h.72c.22,0,.46-.3.74-.9l.11-.26Zm.39-3.89v-.37h1.76v.37h-.09c-.3,0-.44.24-.43.71v3.77c0,.5.13.74.43.72h.09v.37H220.1v-.37h.07c.27,0,.41-.2.41-.68V27.82c0-.47-.12-.71-.41-.71Zm4.71,3.36H223.6l-.22,1.12a.94.94,0,0,0,0,.6q.09.15.45.12h.07v.37H222.4v-.37h.09q.38.07.54-.9l1-4.56-.07-.26h.83l1.1,4.86c.12.59.31.88.57.86v.37h-1.8v-.37h.19a.28.28,0,0,0,.28-.15,1,1,0,0,0,0-.57l-.26-1.12ZM224.7,30l-.52-2.24L223.71,30Zm4.54-2.73v4.37q0,.79.48.72h.13v.37h-2v-.37h.2c.28,0,.43-.22.43-.72V27.22h-.67c-.36-.12-.56.25-.59,1.12H227l.11-1.79h.17a.31.31,0,0,0,.11.15c0,.05.08.06.15,0h2.65c.1,0,.19,0,.26-.19h.2l.08,1.79h-.21c-.05-.87-.25-1.24-.61-1.12Zm4.62,0h-1.21v2.13h.91c.29.05.42-.17.41-.67h.22v1.9H234c0-.47-.14-.69-.5-.67h-.82v1.72c0,.37,0,.54.21.49h.94c.33.05.54-.28.62-1h.22l-.06,1.5h-3.34v-.37h.21c.29,0,.44-.2.44-.68V27.78c0-.47-.15-.69-.48-.67h-.07v-.37h3.06l.07,1.38h-.22c0-.62-.17-.91-.39-.86Zm1.43-.15v-.37a8,8,0,0,1,.91-.08h.09a3.89,3.89,0,0,1,.67-.07,2,2,0,0,1,2,1,4.4,4.4,0,0,1,.46,2,4.74,4.74,0,0,1-.5,2.13,2,2,0,0,1-1.89,1h-1.78v-.37c.36,0,.54-.18.52-.68v-3.7c0-.6-.14-.87-.52-.82Zm1.3,0v4.45c-.05.6.11.84.48.75,1,0,1.51-.9,1.56-2.62a4,4,0,0,0-.41-1.94,1.3,1.3,0,0,0-1.58-.64Zm7.4.11v4.37c0,.53.13.77.48.72h.13v.37h-2v-.37h.19c.29,0,.43-.22.43-.72V27.22h-.67c-.36-.12-.56.25-.58,1.12h-.24l.11-1.79H242a.26.26,0,0,0,.11.15c0,.05.08.06.15,0h2.65c.1,0,.19,0,.26-.19h.19l.09,1.79h-.22c0-.87-.24-1.24-.6-1.12Zm2.28,2.58c.09-2,.8-3.1,2.13-3.25,1.24.12,1.91,1.13,2,3-.11,2-.81,3.1-2.11,3.17s-1.93-1.05-2-2.95Zm.83-.45c0,1.95.48,3,1.32,3.07.72-.05,1.11-.87,1.15-2.47-.07-1.89-.51-2.89-1.3-3-.75.1-1.14.9-1.17,2.39Zm9.33,1.42-.07,1.91h-3.51v-.52l2.47-4.9h-1.5q-.49,0-.54,1.08h-.22l.05-1.6h3.21v.52l-2.47,4.9h1.71c.32.09.54-.37.65-1.39Zm3.36,1.54h.09c.27,0,.41-.23.41-.75V29.88h-1.84v1.71c0,.5.13.74.43.72H259v.37h-1.78v-.37h.08q.42,0,.42-.72V27.78c0-.45-.14-.67-.42-.67h-.08v-.37H259v.37h-.09c-.3,0-.45.22-.43.67v1.54h1.84v-1.5c0-.47-.15-.71-.45-.71h0v-.37h1.78v.37h-.11c-.29,0-.42.22-.41.67v3.81c0,.5.13.74.43.72h.09v.37h-1.78v-.37Zm4.88-5.05h-1.21v2.13h.91c.29.05.43-.17.41-.67H265v1.9h-.22c0-.47-.13-.69-.5-.67h-.82v1.72c0,.37,0,.54.22.49h.93c.33.05.54-.28.63-1h.22l-.07,1.5h-3.34v-.37h.22c.29,0,.43-.2.43-.68V27.78c0-.47-.14-.69-.48-.67h-.06v-.37h3.06l.06,1.38h-.22c0-.62-.17-.91-.39-.86Zm2.26.67v3.59c0,.57.14.84.54.79v.37h-1.34v-.37h0c.28,0,.41-.18.41-.6V27.3a.85.85,0,0,0-.43-.19v-.37h1.13l2.28,4.07V27.93c0-.62-.13-.89-.52-.82H269v-.37h1.43v.37h-.06c-.34,0-.49.16-.46.49v5.08h-.3l-2.65-4.75Zm8.16,1.87v.38c-.28,0-.41.2-.39.59v1.42a2.82,2.82,0,0,1-1.45.56c-1.35,0-2-1.09-2.09-3.14.09-1.86.76-2.87,2-3a2.76,2.76,0,0,1,.89.26,1.1,1.1,0,0,0,.33.08.16.16,0,0,0,.15-.12h.15v1.72h-.22c-.17-1-.55-1.48-1.15-1.53-.85.1-1.3,1-1.34,2.61s.5,2.61,1.34,2.73a.85.85,0,0,0,.61-.22V30.77c0-.39-.19-.59-.69-.59V29.8Zm4.38,1-.06,1.91h-3.52v-.52l2.48-4.9h-1.5q-.5,0-.54,1.08h-.22l0-1.6h3.22v.52l-2.48,4.9h1.71c.32.09.54-.37.66-1.39Zm3.37,1.54h.08q.42,0,.42-.75V29.88h-1.85v1.71c0,.5.13.74.44.72H282v.37h-1.78v-.37h.09c.27,0,.41-.22.41-.72V27.78c0-.45-.14-.67-.41-.67h-.09v-.37H282v.37h-.08c-.31,0-.45.22-.44.67v1.54h1.85v-1.5c0-.47-.16-.71-.46-.71h0v-.37h1.78v.37h-.11c-.29,0-.43.22-.41.67v3.81c0,.5.13.74.43.72h.09v.37h-1.78v-.37Zm2.54-2.51c.08-2,.79-3.1,2.12-3.25,1.25.12,1.91,1.13,2,3-.1,2-.8,3.1-2.11,3.17s-1.93-1.05-2-2.95Zm.82-.45c0,1.95.48,3,1.32,3.07.73-.05,1.11-.87,1.15-2.47-.07-1.89-.5-2.89-1.3-3-.75.1-1.14.9-1.17,2.39ZM293,27.11v-.37h1.43v.37h0c-.36,0-.53.26-.5.79v2.39q0,2.38-1.56,2.46c-1.07,0-1.62-.74-1.63-2.16V27.75c0-.45-.11-.66-.39-.64h-.11v-.37h1.74v.37h-.09c-.26,0-.39.24-.39.64v2.84c0,1,.33,1.54,1,1.57s1.05-.59,1.08-1.76V28.08c0-.67-.13-1-.45-1Zm6.12,0v-.37h1.43v.37h0c-.36,0-.53.26-.5.79v2.39q0,2.38-1.56,2.46c-1.07,0-1.62-.74-1.63-2.16V27.75c0-.45-.12-.66-.39-.64h-.11v-.37H298v.37h-.09c-.26,0-.39.24-.39.64v2.84c0,1,.33,1.54,1,1.57s1.05-.59,1.08-1.76V28.08c0-.67-.14-1-.45-1Zm2.76.82v3.59c-.05.57.13.84.54.79v.37H301v-.37h0c.27,0,.41-.18.41-.6V27.3a.88.88,0,0,0-.44-.19v-.37h1.13l2.28,4.07V27.93c0-.62-.13-.89-.52-.82h-.06v-.37h1.43v.37h-.07c-.33,0-.48.16-.45.49v5.08h-.31l-2.64-4.75Zm4.08-.82v-.37h1.75v.37h-.08c-.31,0-.45.24-.44.71v3.77c0,.5.13.74.44.72h.08v.37h-1.75v-.37H306c.27,0,.41-.2.41-.68V27.82c0-.47-.12-.71-.41-.71Zm4.2,5.64-1.3-4.85c-.14-.6-.34-.86-.58-.79h-.05v-.37h1.93v.37h-.08a.43.43,0,0,0-.44.22.94.94,0,0,0,.05.6l.87,3.22.84-3.52c.07-.32,0-.49-.35-.52h-.13v-.37h1.41v.37h0c-.27-.05-.49.29-.65,1l-1.15,4.63Zm5.21-5.49h-1.21v2.13H315c.29.05.43-.17.41-.67h.22v1.9h-.22c0-.47-.14-.69-.5-.67h-.82v1.72c0,.37,0,.54.21.49h.94c.33.05.54-.28.63-1h.21l-.06,1.5h-3.34v-.37h.21c.29,0,.44-.2.44-.68V27.78c0-.47-.15-.69-.48-.67h-.06v-.37h3.06l.06,1.38h-.22c0-.62-.17-.91-.39-.86Zm2.72,2.88v1.45c0,.5.13.74.43.72h.17v.37h-1.93v-.37h.09q.49.07.48-.72V27.82c0-.47-.14-.71-.46-.71h-.11v-.37h.15a3.28,3.28,0,0,1,.57-.08l.91-.07a1.6,1.6,0,0,1,1.54.67,2.33,2.33,0,0,1,.26,1.08,1.6,1.6,0,0,1-.82,1.54,6.85,6.85,0,0,1,.49,1,6.65,6.65,0,0,0,.46.93.91.91,0,0,0,.74.6v.3h-.35a1.18,1.18,0,0,1-1.21-.56,4.46,4.46,0,0,1-.39-.79,10.16,10.16,0,0,0-.59-1.23Zm0-3.14v2.76h.21c.71,0,1.07-.43,1.07-1.38s-.34-1.33-1-1.38Zm3.71,5.64-.13-1.72h.21c.18.95.49,1.42,1,1.42s.6-.33.63-.93a1.93,1.93,0,0,0-.81-1.35,2.58,2.58,0,0,1-1-1.9c0-1,.42-1.5,1.13-1.57a1.51,1.51,0,0,1,.69.22.41.41,0,0,0,.15,0s.05,0,.09-.07l0,0h.11l.11,1.53h-.22c-.17-.8-.48-1.22-.91-1.27s-.51.27-.54.67a1.61,1.61,0,0,0,.67,1.12,7.4,7.4,0,0,1,.87,1,2.75,2.75,0,0,1,.32,1.27c-.05,1.1-.45,1.67-1.19,1.72-.3,0-.56-.1-.76-.15l-.19-.11a.19.19,0,0,0-.11.15Zm3.16-5.53v-.37h1.76v.37h-.09c-.3,0-.44.24-.43.71v3.77c0,.5.13.74.43.72h.09v.37h-1.76v-.37H325c.27,0,.41-.2.41-.68V27.82c0-.47-.12-.71-.41-.71Zm4.67.11v4.37q0,.79.48.72h.13v.37h-2v-.37h.2c.28,0,.43-.22.43-.72V27.22h-.67c-.36-.12-.56.25-.59,1.12h-.24l.11-1.79h.17a.31.31,0,0,0,.11.15c0,.05.08.06.15,0h2.65c.1,0,.19,0,.26-.19h.2l.08,1.79h-.21c-.05-.87-.25-1.24-.61-1.12Zm4.56,3.07v1.3c0,.5.13.74.47.72h.09v.37h-1.91v-.37H333c.28,0,.41-.2.41-.68V30.29l-1.19-2.73c-.11-.32-.28-.47-.5-.45h0v-.37h1.82v.37h-.09a.44.44,0,0,0-.28.15.36.36,0,0,0,.05.34l.89,2,.65-1.75a1,1,0,0,0,.06-.56c0-.1-.12-.16-.28-.19h-.07v-.37h1.33v.37c-.29,0-.5.22-.63.67Z"/><path class="cls-4" d="M100.12,66.68,100,69.35H92.25v-.74l5.44-6.84H94.4c-.73,0-1.13.47-1.2,1.51h-.47L92.82,61h7.06v.74l-5.44,6.84h3.77c.7.14,1.18-.5,1.43-1.93Zm7.39,2.14h.19c.6,0,.91-.31.91-1V65.43h-4.06v2.4q0,1,1,1h.19v.53h-3.91v-.53H102q.9.06.9-1V62.5c0-.63-.3-.94-.9-.94h-.19V61h3.91v.53h-.19c-.67,0-1,.31-1,.94v2.14h4.06V62.55a.89.89,0,0,0-1-1h-.09V61h3.91v.53h-.24c-.64,0-.94.31-.9.94v5.33c0,.7.28,1,1,1h.19v.53h-3.91v-.53Zm10.73-7h-2.67v3h2c.63.07.94-.25.91-.94H119v2.66h-.47c.06-.66-.31-1-1.1-.94h-1.81v2.4c-.07.53.09.75.47.68h2c.74.07,1.2-.38,1.39-1.36H120l-.14,2.1h-7.34v-.53h.47c.64,0,1-.27,1-.94V62.5c0-.66-.32-1-1.05-.94h-.14V61h6.72l.14,1.94h-.47c-.1-.87-.39-1.27-.86-1.2Zm5,.94v5c-.1.81.3,1.17,1.19,1.1v.53h-3v-.53h.1c.6,0,.9-.24.9-.83V61.82a2.32,2.32,0,0,0-1-.26V61H124l5,5.7v-4c.09-.87-.29-1.26-1.15-1.15h-.14V61h3.14v.53h-.14c-.73,0-1.06.22-1,.68v7.11H129l-5.81-6.64Zm17.92,2.61v.52c-.6,0-.89.28-.85.84v2a8.8,8.8,0,0,1-3.2.78q-4.42-.11-4.58-4.39c.19-2.61,1.67-4,4.44-4.23a8.73,8.73,0,0,1,1.95.36,3.82,3.82,0,0,0,.72.11.36.36,0,0,0,.33-.16h.34v2.4h-.48a2.62,2.62,0,0,0-2.53-2.14q-2.81.21-3,3.66.19,3.56,3,3.82a2.58,2.58,0,0,0,1.34-.32V66.68q.14-.84-1.53-.84v-.52Zm9.64,1.36-.15,2.67h-7.72v-.74l5.43-6.84H145c-.73,0-1.12.47-1.19,1.51h-.48l.1-2.25h7.06v.74l-5.44,6.84h3.77c.7.14,1.17-.5,1.43-1.93Zm7.39,2.14h.19c.6,0,.9-.31.9-1V65.43h-4.05v2.4c0,.7.29,1,.95,1h.19v.53h-3.91v-.53h.19c.61,0,.91-.29.91-1V62.5c0-.63-.3-.94-.91-.94h-.19V61h3.91v.53h-.19c-.66,0-1,.31-.95.94v2.14h4.05V62.55a.88.88,0,0,0-1-1h-.09V61h3.91v.53h-.24c-.64,0-.94.31-.91.94v5.33c0,.7.29,1,1,1h.2v.53h-3.91v-.53Zm5.58-3.5q.27-4.23,4.67-4.55,4.09.27,4.38,4.24-.33,4.29-4.62,4.44-4.16-.15-4.43-4.13Zm1.81-.63q.14,4.08,2.9,4.29c1.59-.07,2.44-1.22,2.53-3.45q-.24-4-2.86-4.18c-1.65.14-2.51,1.25-2.57,3.34Zm14.87-3.13V61h3.15v.53h-.09c-.8,0-1.16.36-1.1,1.1V66q0,3.34-3.44,3.45-3.52,0-3.57-3v-4c0-.63-.25-.93-.86-.89h-.24V61h3.82v.53h-.19a.8.8,0,0,0-.86.89v4a2,2,0,0,0,2.19,2.19c1.53,0,2.32-.81,2.39-2.45V62.92c0-.94-.31-1.4-1-1.36Zm19.36,5.38h.53a11.1,11.1,0,0,1-.72,2.41,3.63,3.63,0,0,0-.71,0,7.08,7.08,0,0,1-.82,0l-1.28.1q-4.11-.26-4.44-4.23.33-4,4.68-4.39a5.73,5.73,0,0,1,2,.41,1.56,1.56,0,0,0,.38.11.19.19,0,0,0,.24-.11h.33l.1,2.36h-.48a2.52,2.52,0,0,0-2.43-2.09c-1.87.17-2.86,1.36-3,3.55.13,2.37,1.17,3.64,3.1,3.82a2.68,2.68,0,0,0,2.53-1.94Zm7.54-5.17h-2.68v3h2c.63.07.94-.25.9-.94H208v2.66h-.48c.07-.66-.3-1-1.09-.94h-1.82v2.4c-.06.53.1.75.48.68h2c.73.07,1.2-.38,1.38-1.36H209l-.14,2.1h-7.34v-.53H202c.64,0,1-.27,1-.94V62.5c0-.66-.32-1-1.05-.94h-.15V61h6.73l.14,1.94h-.48c-.09-.87-.38-1.27-.85-1.2Zm4.95.94v5c-.09.81.31,1.17,1.2,1.1v.53h-3v-.53h.1c.6,0,.9-.24.9-.83V61.82a2.32,2.32,0,0,0-.95-.26V61H213l5,5.7v-4c.1-.87-.28-1.26-1.14-1.15h-.14V61h3.14v.53h-.14c-.73,0-1.07.22-1,.68v7.11h-.67l-5.82-6.64Zm14-1v6.12c-.07.73.28,1.06,1,1h.29v.53h-4.39v-.53h.43c.64,0,.95-.29.95-1V61.71h-1.47c-.8-.17-1.23.35-1.29,1.57h-.52l.23-2.51h.39a.42.42,0,0,0,.23.21.34.34,0,0,0,.34.05h5.81a.57.57,0,0,0,.58-.26h.43l.19,2.51H229c-.1-1.22-.54-1.74-1.33-1.57Zm7.43,4.08v2q0,1,1,1H235v.53h-4.25v-.53H231q1.1.11,1.05-1V62.55c0-.66-.3-1-1-1h-.24V61h.34c.54-.06,1-.1,1.24-.1.86,0,1.52-.07,2-.1,1.72,0,2.85.31,3.38.94a2.24,2.24,0,0,1,.58,1.51,2.28,2.28,0,0,1-1.81,2.15,8.72,8.72,0,0,1,1.09,1.41,7.6,7.6,0,0,0,1,1.3,2,2,0,0,0,1.62.84v.42h-.76a3.23,3.23,0,0,1-2.67-.79,6.18,6.18,0,0,1-.86-1.09,12.33,12.33,0,0,0-1.28-1.73Zm0-4.39v3.87h.48c1.56,0,2.34-.61,2.34-1.93s-.75-1.87-2.15-1.94Zm12.54,4.86h-2.67l-.47,1.57c-.17.42-.18.7,0,.84s.46.19,1,.15h.14v.53h-3.24v-.53h.19c.54.07.94-.35,1.19-1.25l2.1-6.38-.14-.36h1.81l2.43,6.79c.25.84.67,1.24,1.24,1.2v.53h-4v-.53h.43c.32,0,.53-.07.62-.21a1,1,0,0,0-.05-.78l-.57-1.57Zm-.24-.73-1.14-3.14-1.05,3.14ZM258.23,67l-.86,2.36h-6.58v-.53H251a.83.83,0,0,0,1-.94V62.5a.84.84,0,0,0-.95-.94h-.24V61H255v.53h-.39a.79.79,0,0,0-.9.94V68c-.07.48.14.69.62.62h1.57c.48,0,1-.41,1.62-1.25a3.74,3.74,0,0,0,.24-.37Zm13.87,1.83h.19c.61,0,.91-.31.91-1V65.43h-4.05v2.4c0,.7.28,1,1,1h.19v.53h-3.91v-.53h.19c.6,0,.91-.29.91-1V62.5a.82.82,0,0,0-.91-.94h-.19V61h3.91v.53h-.19c-.67,0-1,.31-1,.94v2.14h4.05V62.55a.88.88,0,0,0-1-1h-.1V61H276v.53h-.24a.79.79,0,0,0-.9.94v5.33c0,.7.28,1,.95,1H276v.53H272.1v-.53Zm5.58-3.5q.29-4.23,4.67-4.55,4.11.27,4.39,4.24-.33,4.29-4.63,4.44-4.14-.15-4.43-4.13Zm1.81-.63q.15,4.08,2.91,4.29c1.59-.07,2.43-1.22,2.53-3.45-.16-2.65-1.12-4-2.86-4.18-1.66.14-2.51,1.25-2.58,3.34Zm9.68,4.61-.28-2.41h.47c.38,1.32,1.08,2,2.1,2a1.28,1.28,0,0,0,1.38-1.31c0-.59-.58-1.22-1.76-1.88-1.43-.84-2.15-1.73-2.15-2.67.1-1.36.93-2.09,2.48-2.19a4.81,4.81,0,0,1,1.53.31l.33,0a.42.42,0,0,0,.19-.1s0,0,.1-.06h.24l.24,2.15h-.48a2.26,2.26,0,0,0-2-1.78c-.73.07-1.13.38-1.2.94s.5,1,1.48,1.57a12.24,12.24,0,0,1,1.91,1.36,2.81,2.81,0,0,1,.72,1.78,2.42,2.42,0,0,1-2.63,2.4c-.66-.07-1.22-.14-1.67-.21a2.35,2.35,0,0,0-.43-.15.29.29,0,0,0-.23.21ZM299,65.84v2q-.1,1.1,1.05,1h.33v.53h-4.15v-.53h.19c.61.07.89-.19.86-.78v-5.7c0-.56-.25-.82-.86-.78h-.24V61A6.77,6.77,0,0,0,297,61l1.1-.1c.54,0,1.19-.05,2-.05,2.13.07,3.25.94,3.34,2.61-.09,1.64-1.11,2.47-3.05,2.51a4.5,4.5,0,0,1-1.38-.11Zm0-4.33v3.76a1.6,1.6,0,0,0,.85.1c1.15,0,1.74-.68,1.77-2a1.77,1.77,0,0,0-1.77-1.94,3.54,3.54,0,0,0-.85.11Zm5.86.05V61h3.86v.53h-.19a.83.83,0,0,0-1,1v5.28c0,.7.28,1,1,1h.19v.53h-3.86v-.53H305c.61,0,.91-.27.91-.94V62.55c0-.66-.27-1-.91-1Zm10.25.15v6.12q-.09,1.1,1.05,1h.29v.53H312v-.53h.43c.64,0,.95-.29.95-1V61.71h-1.47c-.8-.17-1.23.35-1.29,1.57h-.53l.24-2.51h.38A.47.47,0,0,0,311,61a.34.34,0,0,0,.34.05h5.81a.57.57,0,0,0,.58-.26h.43l.19,2.51h-.48c-.1-1.22-.54-1.74-1.34-1.57Zm9.78,4.55h-2.67l-.48,1.57c-.16.42-.17.7-.05.84s.46.19,1,.15h.15v.53h-3.24v-.53h.19c.54.07.93-.35,1.19-1.25l2.1-6.38-.15-.36h1.81l2.44,6.79c.25.84.66,1.24,1.24,1.2v.53h-4v-.53h.43a.72.72,0,0,0,.62-.21,1,1,0,0,0,0-.78l-.57-1.57Zm-.24-.73-1.14-3.14-1,3.14ZM336.85,67,336,69.35h-6.59v-.53h.24a.83.83,0,0,0,1-.94V62.5a.84.84,0,0,0-1-.94h-.24V61h4.15v.53h-.38c-.64,0-.94.31-.91.94V68c-.06.48.15.69.62.62h1.58c.48,0,1-.41,1.62-1.25l.24-.37Z"/><circle class="cls-5" cx="34.35" cy="38.28" r="34.35" transform="translate(-17.01 35.5) rotate(-45)"/><circle class="cls-6" cx="34.35" cy="38.28" r="33.46" transform="translate(-12.21 60.12) rotate(-73.23)"/><circle class="cls-5" cx="34.35" cy="38.28" r="32.77" transform="translate(-17.01 35.5) rotate(-45)"/><circle class="cls-6" cx="34.35" cy="38.28" r="23.96" transform="translate(-17.01 35.5) rotate(-45)"/><path class="cls-7" d="M31.14,17.86a3.53,3.53,0,0,1,2.38,1.32,2.92,2.92,0,0,1,.3,1.48c-2.5.22-2.85-2.52-2.82-2.43-1.11.42-2,1.79-1.2,2.83-1,.67.27,2.54,1.18,2.79.19,0,.28-2.65,3.09-2.55,1.72.05,2.27,1.08,2.77,2.55.66-.07,1.57-1.46,1.57-2.09a.64.64,0,0,0-.27-.58c-.08-.05-.29-.08-.06-.2a.82.82,0,0,0,.4-.61c-.07-.85-1-1.64-1.65-2.08-.27.47-.36,2.61-2.64,2.34A2.51,2.51,0,0,1,36.8,18c.22-.11-1.26-1.92-2.14-1.81-.38,0-.44.43-.53.63-.11-.19-.17-.51-.63-.6C32.61,16,31.07,17.24,31.14,17.86Z"/><path class="cls-8" d="M26.27,37a11.13,11.13,0,0,0-4.55.51c-1.65.62-3.47,0-3.83-1.34a6.86,6.86,0,0,0,3.6.06,5.54,5.54,0,0,1,3.37-.05A4.29,4.29,0,0,1,26.27,37Z"/><path class="cls-8" d="M40.42,38.16c0-.11,2.67,1.85.44,4a8.74,8.74,0,0,1-2,1.54C39.14,43.25,40.77,40,40.42,38.16Z"/><path class="cls-9" d="M38,44.61c8.41-.37,19.37-8.53,10.5-14.95-2.44-1.77-3.88-1.59-4.2-1.6,5.58,1.92,5.6,9.36-1.4,14.19A37.52,37.52,0,0,1,38,44.61Z"/><path class="cls-8" d="M19.88,30.69a23.73,23.73,0,0,1,10.93-4.18,23.52,23.52,0,0,1,8.66.25c4.27,1.21,7,3.45,7.76,5.58A6.9,6.9,0,0,1,46.55,38l-1.22,1.77a4.89,4.89,0,0,0-1.12-5.91c-2.49-2.51-7.39-3.82-11.42-4.18a45.72,45.72,0,0,0-7.64.09A21.82,21.82,0,0,0,19.88,30.69Z"/><path class="cls-10" d="M32.77,22.07c0-.4,1.79-.76,2.43,0,0,.9.89,35.56.89,35.56A6.31,6.31,0,0,0,37.49,60H30.43a4.81,4.81,0,0,0,1.3-2.46Z"/><path class="cls-11" d="M28.53,36.9S24.87,38.6,24,40.51s-.28,3.93,2.5,5.13c6.34,2.73,18.16-.18,23.5-3.74.14.83-2.35,3.13-4.56,4.15A33.91,33.91,0,0,1,40,47.48a17.94,17.94,0,0,0,4.78-.76s-2.81,2.1-4.17,2.21-4.45.21-4.45.21-.18,0-.08.06a22.59,22.59,0,0,0,3.77.1A9.76,9.76,0,0,1,36,50.67a22.41,22.41,0,0,1-10.7-1.88,7.5,7.5,0,0,1-2.56-2.15c-1-1.38-1-3.21.11-5.63-1.57,2.91-1,4.93.18,6.28,2.39,2.64,7.77,3.36,11.43,3.44,0,0-1.85,1.5-7.33,1.12s-9.8-2.94-9.22-7.17C18.48,40.21,24,37,28.53,36.9Z"/><path class="cls-2" d="M6.51,26.39a.46.46,0,0,1,.65-.19c.26.17.45.19.56,0a.44.44,0,0,0,0-.41s-.08-.1-.11-.21a.63.63,0,0,0-.17-.27c-.22-.32-.24-.53,0-.61a.5.5,0,0,1,.28.11.66.66,0,0,1,.12.24.68.68,0,0,0,.16.3c0,.09.1.12.13.1a1.94,1.94,0,0,1,.18-.25l.09-.17c.09-.09.16-.12.22-.07a.58.58,0,0,1,.15.73,2.38,2.38,0,0,1-.23.46c0,.1,0,.18.08.26s.19,0,.22-.08a2.89,2.89,0,0,1,.43-.7s0,0,0,0,.05,0,.08-.09.16,0,.29.09a.41.41,0,0,1,0,.5s-.05.13-.11.28a2.88,2.88,0,0,0-.17.38c0,.15.08.29.28.42a1.67,1.67,0,0,1,.63,1.36c0,.39-.17.56-.41.5A1.66,1.66,0,0,0,9.5,29c-.06,0-.1,0-.1-.05a.28.28,0,0,1,.11-.16c.08,0,.14-.11.18-.28a1.21,1.21,0,0,0-.41-1.13c-.11,0-.2,0-.26.21a2.43,2.43,0,0,1-.2.7c-.06.13-.15.19-.24.18a.41.41,0,0,1-.29-.11c-.07-.06-.07-.14,0-.25a.53.53,0,0,0,0-.2.5.5,0,0,1,.06-.34.8.8,0,0,0,0-.22,1.68,1.68,0,0,1,.06-.3.23.23,0,0,0,0-.25.44.44,0,0,0-.19-.1c-.08,0-.11.1-.11.22a2.71,2.71,0,0,1-.19.61c-.07.22-.12.32-.16.32a.72.72,0,0,1-.52.05c-.14-.12-.16-.23,0-.33a.41.41,0,0,0,.11-.29,2.87,2.87,0,0,0,0-.42.32.32,0,0,0-.2-.32.21.21,0,0,1-.14,0l-.31.06a.18.18,0,0,1-.24,0,.23.23,0,0,1,0-.25Zm1.74-2.15c-.1.11-.08.23,0,.36a.46.46,0,0,0,.42.12.65.65,0,0,1,.48.15,1.42,1.42,0,0,0,.34.24.87.87,0,0,0,.32.1,1.44,1.44,0,0,1,.57.32q.27.2,1.05.66a3,3,0,0,0,.73.37c.08,0,.14,0,.17-.1s0-.1,0-.19-.21-.45-.74-.72c-.21,0-.27-.14-.18-.31a3.07,3.07,0,0,0,.1-.86,5.7,5.7,0,0,1,.16-.63.33.33,0,0,0,0-.33,1.07,1.07,0,0,0-.38-.16.93.93,0,0,0-.38.15.18.18,0,0,1-.16.07,2,2,0,0,0-.53.25c-.15.11-.26.05-.31-.16a12.07,12.07,0,0,0-.4-1.21c-.06-.09-.12-.14-.18-.13s-.14.07-.14.15a.32.32,0,0,1-.13.27,4.71,4.71,0,0,0-.36.64,4.52,4.52,0,0,0-.29.62c0,.21-.07.32-.2.33Zm.85-.52a.31.31,0,0,1,.14-.2q.11,0,.12.06a.55.55,0,0,0,.07.28,1.21,1.21,0,0,1,.08.38c0,.24-.08.36-.25.36a.14.14,0,0,1-.1,0A1.69,1.69,0,0,1,9,24.39a.19.19,0,0,0,0-.07.26.26,0,0,1,0-.17,1.11,1.11,0,0,0,.19-.43Zm1.19.67a.54.54,0,0,0-.15.29.18.18,0,0,0,.15.2,1.55,1.55,0,0,0,.5.22c.06,0,.13,0,.21,0A1.1,1.1,0,0,0,11.05,24a1.34,1.34,0,0,0-.76.41Zm-.41,2.43c0,.08.15.15.38.23a1,1,0,0,0,.47,0c.18-.05.25-.19.18-.43a1.93,1.93,0,0,0-.26-.44s-.05-.05-.08,0,0,0,0,0a.21.21,0,0,1-.11.1,1.55,1.55,0,0,0-.55.58ZM16.31,14a.3.3,0,0,1,.37,0c.35.3.48.5.41.61s.08.24.27.49a5.12,5.12,0,0,0,.67.76,1.43,1.43,0,0,1,.27.41c0,.07.14.22.39.46,0,0,0,0,0,0a3.75,3.75,0,0,1,.73.86.16.16,0,0,1,0,.11s0,0-.08,0-.35-.1-.58-.34a1.88,1.88,0,0,1-.27-.24l-.3-.31a1,1,0,0,1-.28-.3.17.17,0,0,0-.26.07l-.09.15c-.14.26-.23.45-.28.56s-.13.1-.23-.1a7.19,7.19,0,0,0-.42-.75,1.43,1.43,0,0,1-.28-.38,1.3,1.3,0,0,0-.29-.39c-.27-.23-.38-.43-.36-.6a.3.3,0,0,1,.36-.12,1.25,1.25,0,0,1,.53.67c.1.34.21.55.33.61s.27-.08.39-.39a2.68,2.68,0,0,0-.52-.79,2.31,2.31,0,0,1-.26-.27c-.11-.15-.19-.28-.26-.39a.44.44,0,0,1,0-.5Zm-2.87,2.62c-.07.11,0,.27.06.49a.83.83,0,0,0,.39.38,2.12,2.12,0,0,1,.63.79,1.81,1.81,0,0,1,0,.62c-.08.11-.15.15-.21.1a.72.72,0,0,1-.15-.27,4.14,4.14,0,0,0-1-1.15l-.1-.08c-.07,0-.1,0-.11-.09s-.24-.08-.3.07a.72.72,0,0,0,.1.42,1,1,0,0,0,.49.41,1.12,1.12,0,0,1,.47.39,1.05,1.05,0,0,0,.17.29,1.77,1.77,0,0,1,.08.82.64.64,0,0,0,.22.64c.08,0,.18-.05.29-.29a2.09,2.09,0,0,0,.27-.87,1,1,0,0,1,.13-.35c.1-.06.17-.05.23,0a1.34,1.34,0,0,1,.09,1,2.55,2.55,0,0,1-.43.89c-.09.15-.1.26,0,.32s.19.07.31,0a1.74,1.74,0,0,0,.62-.7,1.15,1.15,0,0,0-.08-1.33,1.38,1.38,0,0,1-.26-.48,2.33,2.33,0,0,0-.54-.73,2.25,2.25,0,0,1-.32-.38,1.26,1.26,0,0,1-.18-.34,1.56,1.56,0,0,0-.38-.58.37.37,0,0,0-.47,0Zm1.5-1.12a1.79,1.79,0,0,0,.34.75.85.85,0,0,1,.1.17c0,.06.07.11.11.12a1,1,0,0,0,.26.35q.27.38.06.63c-.11.1-.23,0-.35-.24a7.12,7.12,0,0,0-.8-1.08.2.2,0,0,0-.22-.06c-.06,0-.08.08-.08.17a.69.69,0,0,0,.3.57,2.24,2.24,0,0,1,.49.59,3.05,3.05,0,0,1,.46.79.6.6,0,0,0,.24.33c.07.09.13.05.17-.1a2.53,2.53,0,0,1,.11-.42,1.06,1.06,0,0,0,.06-.22.18.18,0,0,1,.28-.06,1.39,1.39,0,0,1,.23.41,1.39,1.39,0,0,0,.72.69c.07,0,.12,0,.13,0s0-.06,0-.14a3.14,3.14,0,0,0-.37-.65A6,6,0,0,1,16.36,17a2.44,2.44,0,0,0-.22-.31,2.72,2.72,0,0,1-.54-.81,2.18,2.18,0,0,0-.4-.52c-.18,0-.26,0-.26.15ZM23.5,10a.72.72,0,0,1,.66.19q.18.23.51,0A5.74,5.74,0,0,1,25.9,10a.26.26,0,0,0,.25-.1c.14-.11.23-.17.29-.17a.37.37,0,0,0,.27-.13.11.11,0,0,1,.15,0,.21.21,0,0,1,0,.19.23.23,0,0,0,0,.28,1,1,0,0,1-.21.52.72.72,0,0,1-.72.18A3.21,3.21,0,0,0,24,11a7,7,0,0,0-1.92,1.35c-.46.41-.77.38-.91-.09-.08-.22,0-.35.2-.4s.2,0,.27-.13a2.37,2.37,0,0,1,.81-.49c.53-.2.78-.47.77-.82s.05-.39.28-.4Zm.8,1.24a.29.29,0,0,0-.35-.07.56.56,0,0,0-.14.41,1.67,1.67,0,0,1-.95.63q-.37.16-.12.69a1.63,1.63,0,0,1,.2,1.74,2.6,2.6,0,0,0-.29.69c0,.11,0,.14.13.1a.43.43,0,0,1,.23,0l.08,0a.59.59,0,0,0,.33-.27c.25-.61.32-1,.2-1.22a1,1,0,0,1-.05-.54.64.64,0,0,0-.05-.27.28.28,0,0,1,0-.31l.05,0a1.08,1.08,0,0,0,.31-.26c.13-.11.24-.09.32.08s.15.48.22.71c.21.71.38,1.23.5,1.53a.15.15,0,0,0,.18.11c.15,0,.22-.11.22-.2a.34.34,0,0,1,.11-.25.76.76,0,0,0,0-.46,11.46,11.46,0,0,1-.58-1.44c-.15-.34-.09-.54.17-.62.41-.16.62-.15.63,0a8.25,8.25,0,0,1,.44,1,1.38,1.38,0,0,0,.21.48,2.22,2.22,0,0,1,.19.42c.11.13.22.08.35-.16a.81.81,0,0,0-.12-.37,9.26,9.26,0,0,0-.5-1,1.71,1.71,0,0,1-.19-1c-.07-.34-.21-.47-.41-.37a.26.26,0,0,1-.2.08.84.84,0,0,0-.4.09,2,2,0,0,1-.46.12.19.19,0,0,1-.26-.08Zm10.09-3a.66.66,0,0,1,.28.19c0,.14.2.21.47.21a6.67,6.67,0,0,1,1.34.11,1,1,0,0,0,.58,0,.41.41,0,0,1,.41.08.58.58,0,0,1-.18.52,3.06,3.06,0,0,0-.45,1,.6.6,0,0,1,0,.41.54.54,0,0,1-.54.12,6.61,6.61,0,0,0-.69,0c-.27,0-.49,0-.65,0s-.22.13-.22.33l0,1.18a4.3,4.3,0,0,1,0,.57.79.79,0,0,1-.44.26c-.12,0-.18-.09-.16-.16a2.58,2.58,0,0,0,0-.47,2.8,2.8,0,0,1,0-.77q.07-.81-.15-.87a2.75,2.75,0,0,0-.68,0,1.93,1.93,0,0,1-.63.18,4.8,4.8,0,0,0-1.06.42c-.11.06-.16,0-.16-.07a.74.74,0,0,1,.31-.67,1.06,1.06,0,0,0,.23-1,.36.36,0,0,0-.31-.27c-.16,0-.27-.16-.33-.38,0-.07,0-.12.16-.14a8.63,8.63,0,0,0,1-.15c.33-.08.77-.16,1.31-.24a.38.38,0,0,0,.33-.23.31.31,0,0,1,.18-.19Zm1.44,1-.38,0a.66.66,0,0,1-.27,0c-.19,0-.3,0-.36.12a1,1,0,0,0-.07.79c0,.13.48.18,1.37.14.19.09.34-.18.46-.8-.06-.13-.31-.19-.75-.2ZM34.2,9.4c-.06-.11-.17-.14-.33-.1a1.07,1.07,0,0,1-.41.06,1.58,1.58,0,0,0-.73.42,1.12,1.12,0,0,0-.19.5c0,.18.13.26.34.24a3.58,3.58,0,0,1,1-.24.37.37,0,0,0,.35-.28,2.19,2.19,0,0,0,0-.6Zm11.15,1s.09,0,.15.08.07.11.13.11a.26.26,0,0,1,0,.25l0,0a.5.5,0,0,0-.08.15.31.31,0,0,1-.24.17,1.28,1.28,0,0,0-.53.53.73.73,0,0,1-.62.4c-.13,0-.2,0-.2.07s-.1.21-.14.21-.09.07,0,.17a5.33,5.33,0,0,0,.55,1,1,1,0,0,0,.45.49.47.47,0,0,1,.11.1l.1,0c0,.08.17.13.36.14a8.26,8.26,0,0,1,.87.33.78.78,0,0,0,.47.07c.1,0,.17,0,.2.08s0,.11-.12.15l-.31.21-.16.11a2,2,0,0,1-1.59-.05c-.25,0-.49-.4-.74-1.14-.16-.45-.33-.86-.51-1.25a1.75,1.75,0,0,1-.23-.85,1,1,0,0,0-.19-.42c-.09-.07-.18,0-.28.12a.36.36,0,0,0-.08.12s-.05,0-.05.07a.61.61,0,0,0-.15.24,1.34,1.34,0,0,1-.65.39l-.13,0c-.06,0-.1,0-.11,0s-.26.07-.32-.09a.51.51,0,0,1,0-.47,2,2,0,0,0,.08-.36l0,0c0-.18.11-.24.24-.17l.23.09a1.21,1.21,0,0,0,1.07-.26c.1-.08.11-.2,0-.37a.51.51,0,0,1,0-.34c0-.19.05-.3.12-.34l.1,0,.23-.06c.1,0,.14.14.11.31a2,2,0,0,0,.06.93,1.87,1.87,0,0,1,.07.44l0,.07q0,.31.24.21a1.34,1.34,0,0,0,.52-.45,1.05,1.05,0,0,1,.15-.23.78.78,0,0,0,.13-.19.27.27,0,0,0,0-.32c-.15-.11-.17-.21-.06-.29a2.1,2.1,0,0,1,.75-.2Zm.95,1.18c-.19,0-.27.07-.22.21s-.35.41-1,.67c-.15,0-.23,0-.25,0s0,0,.15.09l.28.17a.61.61,0,0,0,.81,0,4.6,4.6,0,0,1,.58-.37.15.15,0,0,1,.08,0c.14-.13.2-.24.16-.35a1.1,1.1,0,0,0-.6-.35Zm8.35,4.68a1.14,1.14,0,0,0,.37.32,5.2,5.2,0,0,1,.75.72.83.83,0,0,0,.15.24.31.31,0,0,0,.15.13c0,.1,0,.18-.1.24-.33.12-.65,0-1-.44a9.74,9.74,0,0,0-1.09-1.12c-.07-.06-.22,0-.44.12s0,.23.36.42a6.75,6.75,0,0,1,1.23,1.22.24.24,0,0,1,.08.11l.09.07c0,.14-.14.19-.5.15a3,3,0,0,1-.65-.46,1.87,1.87,0,0,0-.37-.32c-.15,0-.22.08-.2.22a3.07,3.07,0,0,1,.86.93.52.52,0,0,0,.12.25.11.11,0,0,1,0,.1l-.31.06a.61.61,0,0,1-.52-.28c-.15-.17-.25-.21-.32-.13l-.13.18L53,19.2s0,.07,0,.14a.08.08,0,0,0,0,.05,1.9,1.9,0,0,1,.36.5,2,2,0,0,0,.36.42l.39.3a.62.62,0,0,0,.31.16.13.13,0,0,1,.08.07.31.31,0,0,1,0,.1,2.2,2.2,0,0,1-1.1.17,1.81,1.81,0,0,1-.62-.61,4.11,4.11,0,0,0-.7-1.12A20.17,20.17,0,0,0,50,18a4,4,0,0,1-.47-.22,3.22,3.22,0,0,1-.34-.26c0-.13.1-.28.33-.43a.63.63,0,0,1,.51,0c.07.06.19,0,.37-.05a13,13,0,0,0,1.09-1,.69.69,0,0,1,.3-.31.7.7,0,0,0,.25-.7c.06-.21.17-.32.32-.33.38.09.56.17.54.25s.09.14.33.25a10.13,10.13,0,0,1,1.39,1Zm-1.43-.41a2.87,2.87,0,0,1-.35-.13l0,0a.54.54,0,0,0-.36.16,2.86,2.86,0,0,1-.34.35c0,.06,0,.11.2.14s.07,0,.17,0h.08A2.5,2.5,0,0,1,53,16.2l.06,0a1,1,0,0,0,.22-.09c.12-.07.11-.16,0-.27ZM53,17l-.28-.13-.14-.09a2.24,2.24,0,0,0-.78-.27c-.14.13-.26.25-.36.33a1.66,1.66,0,0,0-.35.35,1.66,1.66,0,0,1-.23.23l-.07.09c-.09,0-.09.09,0,.13a1.86,1.86,0,0,1,.2.14,1.23,1.23,0,0,0,.44.24.6.6,0,0,0,.39-.06,1,1,0,0,1,.28-.16.14.14,0,0,1,.09,0l.1,0a2,2,0,0,0-.63-.36q-.31-.14,0-.51c.07-.11.18-.11.31,0a2.52,2.52,0,0,0,.4.21l.27.15.26.12c0,.05.16,0,.32,0s-.05-.21-.21-.3Zm-.23,1.18a.88.88,0,0,1-.23.06l-.38.1c-.11.05-.12.12,0,.22a2.27,2.27,0,0,1,.35.34c.11.1.19.08.23-.06a1.08,1.08,0,0,1,.22-.46A.17.17,0,0,0,52.73,18.17Z"/><path class="cls-2" d="M61.55,25.46a.57.57,0,0,1,0,.6c-.17.09-.16.24,0,.48l.15.29.05.1a.79.79,0,0,0,.19.36c.14.2.1.33-.11.4H61.7a1,1,0,0,1-.32,0,2.55,2.55,0,0,1-.28-.08.61.61,0,0,1-.3-.27c-.07-.15,0-.23.1-.24a1.87,1.87,0,0,0,.4,0,1.47,1.47,0,0,0-.09-.6L61,26.18c-.2-.19-.3-.33-.31-.43a1.33,1.33,0,0,0-.31-.49,1.19,1.19,0,0,0-.61-.17s.05,0,.1.13a1.91,1.91,0,0,0,.28.38,2,2,0,0,1,.47.86.77.77,0,0,0,.08.27.19.19,0,0,1-.11.21.16.16,0,0,1-.2-.09,14.58,14.58,0,0,1-.92-1.46c-.09-.16-.05-.27.1-.33-.19-.25-.2-.39,0-.41a1.06,1.06,0,0,0,.48-.19.17.17,0,0,1,.27.05c.42.62.72.9.89.83a.36.36,0,0,1,.37.12ZM59.6,23.39a.65.65,0,0,1-.21-.11h0a.23.23,0,0,0-.28.05c-.08.08-.09.13,0,.14a1.42,1.42,0,0,0,.56.24c.1,0,.11-.13,0-.31Zm-.88.75a.56.56,0,0,0-.18-.37c-.21-.12-.32-.16-.35-.13a1.64,1.64,0,0,1-.32.2c-.07,0-.1.06-.11.09s0,.08.08.11a.83.83,0,0,1,.2.08,4.35,4.35,0,0,0,.51.17c.11,0,.17,0,.17-.15Zm1.45,3.25a3.54,3.54,0,0,0-.54-1.11.65.65,0,0,0-.11-.15l-.12-.25a2.15,2.15,0,0,0-.34-.41.91.91,0,0,1-.23-.28c-.11-.17-.23-.19-.37-.06s-.22.34-.09.48a4.89,4.89,0,0,1,.62.79c0,.1,0,.16,0,.2a3.72,3.72,0,0,0-.45.19l-.41.15c-.4.15-.58.31-.52.49a2.36,2.36,0,0,1,.29,1.11,1.19,1.19,0,0,0,.43.79.74.74,0,0,0,.71.07s.14-.11.38-.17a.11.11,0,0,1,.06,0,.1.1,0,0,0,.07-.1s0-.06-.07-.08a1,1,0,0,1-.83-.78,1.18,1.18,0,0,0-.07-.2,1.2,1.2,0,0,0-.13-.31c-.08-.16-.07-.27,0-.32a1.25,1.25,0,0,1,.24-.15,1.94,1.94,0,0,1,.34-.11l.09-.05c.14-.05.23,0,.26,0a1.15,1.15,0,0,0,.08.15.71.71,0,0,0,.23.28,1,1,0,0,0,.44.14.11.11,0,0,0,.12-.12c-.05,0-.07-.08-.07-.21Zm-1.75-1.32a.18.18,0,0,1,.09.17c0,.08-.07.11-.14.1h-.22a.13.13,0,0,0-.08,0A4.16,4.16,0,0,1,56.89,26a.5.5,0,0,1-.27-.53.3.3,0,0,1,.45-.14.31.31,0,0,0,.16.13,3,3,0,0,1,.82.41,2.14,2.14,0,0,0,.37.24Zm.84-1.71c.07-.2.36-.21.87-.05.26.06.43,0,.52-.07s0-.17-.06-.29a.46.46,0,0,1-.12-.36.82.82,0,0,0-.3-.53A.49.49,0,0,1,60,22.5c-.13-.28-.37-.33-.73-.15a2.11,2.11,0,0,1-.76.67,12.61,12.61,0,0,1-1.82.83,1.45,1.45,0,0,0-.4.23,2.2,2.2,0,0,0-.41.4,1.58,1.58,0,0,0,1-.14.68.68,0,0,1,.7,0,2.12,2.12,0,0,0,.55.24,2.61,2.61,0,0,1,.33.17.93.93,0,0,0,.54.15A.7.7,0,0,0,59.26,24.36Z"/><path class="cls-12" d="M7.08,32.11a.55.55,0,1,1-.55.55A.54.54,0,0,1,7.08,32.11Z"/><path class="cls-12" d="M61.46,32a.55.55,0,1,1-.55.55A.55.55,0,0,1,61.46,32Z"/><path class="cls-2" d="M5.73,39.26l-1.09-.11L4.81,36h.3L7.8,38.38,7.87,37c0-.29-.17-.47-.6-.51v-.2l.93.09-.16,2.88-.3,0L5.06,36.91,5,38.44c-.07.28.18.49.76.63v.19Zm-.56,2.93v.08c0,.25.17.35.47.32l1-.1-.17-1.64-1,.1c-.28,0-.4.16-.36.43v.08l-.22,0-.16-1.59.21,0V40c0,.24.16.35.44.32L7.56,40a.34.34,0,0,0,.35-.41v-.07l.21,0,.17,1.59-.21,0v-.07c0-.27-.17-.39-.43-.35l-.87.09.17,1.65.85-.09a.37.37,0,0,0,.37-.45v0l.22,0,.16,1.58-.21,0v-.1q0-.39-.42-.33l-2.18.23c-.29,0-.41.16-.37.43v.08l-.21,0L5,42.21l.21,0Zm3.69,3.45c.08.18,0,.34-.38.47l0,.19L9.28,46l-.71-2.66-.21.06,0,.06q.13.42-.27.51L6,44.58c-.27.07-.42,0-.48-.27l0-.19-.21.05L6,47.07l.85-.17-.06-.18c-.4,0-.63-.11-.68-.4l-.22-.81c-.07-.15,0-.23.22-.26l1-.26.19.72c.1.31,0,.48-.26.53l.05.19,1.06-.29L8.08,46c-.28.09-.43,0-.47-.25l-.21-.79,1.18-.32.28,1ZM9,47.44l-1.92.74c-.33.08-.41.29-.25.62l-.2.08-.43-1.13.2-.08v0a.31.31,0,0,0,.45.22L9.27,47a1,1,0,0,0,0-.4l.2-.08.37,1L8.34,50.24l1.55-.6c.34-.09.44-.29.27-.6l0-.06.2-.07.46,1.19-.2.08,0,0c-.11-.28-.24-.38-.41-.28l-2.73,1-.09-.25L9,47.44ZM11.2,54.1l-.82-1.43-.19.1c.23.4.23.63,0,.71l-.66.39a1,1,0,0,1-.39-.41c-.31-.68-.06-1.29.76-1.83s1.47-.34,1.9.3a1.07,1.07,0,0,1-.24,1.33l.09.17.86-.49-.07-.12a.14.14,0,0,1-.12-.09,1,1,0,0,1-.11-.27,3.77,3.77,0,0,0-.27-.77A1.73,1.73,0,0,0,9.54,51a1.68,1.68,0,0,0-.63,2.52,3.4,3.4,0,0,0,.93,1l.71-.41c.19-.12.34-.08.47.14l.18-.11Zm1.87,3.27-.9.63-1.94-2.48.23-.19,3.59,0-.83-1.06c-.17-.25-.44-.25-.79,0l-.12-.16.75-.53,1.77,2.27-.23.18H11l1,1.21q.19.39,1,0l.12.15ZM14.48,60l-.15.15,1.15,1.11.15-.15L15.57,61c-.2-.18-.2-.36,0-.56l1.52-1.58a.32.32,0,0,1,.53,0l.07.07.15-.15-1.14-1.11-.15.15,0,0a.37.37,0,0,1,0,.58L16,59l-1.19-1.15.61-.63a.34.34,0,0,1,.55,0l0,.06.15-.16L15,56l-.15.16,0,0a.34.34,0,0,1,0,.54l-1.52,1.57c-.2.21-.39.22-.55,0l-.06,0-.15.15,1.15,1.11.15-.15-.06-.06a.33.33,0,0,1,0-.56l.68-.71,1.19,1.15L15.1,60c-.21.22-.39.23-.56.05L14.48,60Zm2.6.29a1.82,1.82,0,0,1,2.64-.4,1.71,1.71,0,0,1,.42,2.47,1.77,1.77,0,0,1-2.6.36,1.65,1.65,0,0,1-.46-2.43Zm.75.22c.52-.68,1.07-.84,1.65-.49s.53,1.16-.06,2.07c-.57.72-1.13.9-1.67.54s-.55-1.19.08-2.12Zm5.52,1.85.07,0c.26.12.29.35.11.69l-.61,1.18a.9.9,0,0,1-1.32.46.8.8,0,0,1-.39-1.21L22,62a.32.32,0,0,1,.48-.16l.07,0,.09-.19L21.21,61l-.1.2.09,0c.22.1.27.26.14.49l-.74,1.45c-.36.73-.11,1.32.73,1.77a1.28,1.28,0,0,0,1.9-.62l.62-1.23a.38.38,0,0,1,.61-.2l0,0,.1-.19-1.15-.59-.09.2Zm4.71,3.91.21.05a5,5,0,0,1-.54.88l-.28-.09L27.13,67l-.52-.09a1.73,1.73,0,0,1-1.3-2.15,1.83,1.83,0,0,1,2.31-1.25,2.19,2.19,0,0,1,.73.37l.14.08s.07,0,.1,0l.13,0-.21.94-.19-.05a1,1,0,0,0-.73-1.08c-.76-.13-1.28.23-1.55,1.1s.07,1.56.82,1.84a1.1,1.1,0,0,0,1.2-.5Zm3.15-1.66c.19,0,.29.17.28.53l.2,0,0-.8L29,64l0,.21H29c.3,0,.43.16.38.43l-.27,2.2a.33.33,0,0,1-.43.34l-.19,0,0,.22,3,.36.17-.85-.2,0c-.12.39-.33.55-.62.49L30,67.26c-.16,0-.22-.09-.16-.3l.12-1,.73.09c.32,0,.46.17.4.44l.19,0,.13-1.08-.19,0c0,.29-.16.4-.41.34l-.81-.1.14-1.21,1.09.13Zm1.75.51-.11,2.06c-.05.33.1.48.47.47l0,.22-1.2-.06v-.22h0a.31.31,0,0,0,.39-.32l.13-2.53a.86.86,0,0,0-.38-.13v-.21l1,0,1.92,2.44.08-1.65c.06-.35-.09-.52-.44-.49h-.06V64.5l1.29.07v.21H36c-.3,0-.44.07-.43.25L35.46,68h-.27L33,65.09Zm5.16-.59.31,2.5c0,.3.17.42.48.35H39l0,.21-1.78.22,0-.21.18,0q.39,0,.33-.45l-.3-2.49-.6.07c-.33,0-.48.2-.44.7l-.22,0,0-1h.16a.26.26,0,0,0,.11.07.12.12,0,0,0,.13,0l2.36-.29a.22.22,0,0,0,.22-.13l.17,0,.21,1-.2,0c-.1-.5-.3-.69-.62-.58l-.58.07Zm3,1.14.37-.11a4.12,4.12,0,0,1,.7.54,2.7,2.7,0,0,0,.46.33,1.29,1.29,0,0,0,1.14,0l.3-.08,0-.17A.79.79,0,0,1,43.3,66a3,3,0,0,1-.54-.4,3.57,3.57,0,0,0-.59-.43.93.93,0,0,0,.47-1.05,1,1,0,0,0-.4-.54,1.81,1.81,0,0,0-1.43,0l-.78.27a3.46,3.46,0,0,0-.47.18l-.13,0,.06.21.09,0a.36.36,0,0,1,.51.28l.59,2.09q.15.44-.3.51l-.07,0,.06.21L42,66.89l-.05-.2-.15,0c-.26.09-.42,0-.49-.29l-.23-.8Zm-.5-1.74.26-.07c.56-.13.91,0,1.06.52s-.08.87-.69,1l-.19.05-.44-1.53Zm5.18.31-1,.46.1.66c0,.19.05.29.12.32s.21,0,.4-.11l0,0,.09.2-1.2.56-.09-.2.07,0c.22-.07.29-.29.23-.67l-.33-2.74-.12-.11.67-.31,2.08,2.11c.24.27.46.34.67.23l.09.2-1.47.68-.09-.2.16-.07c.12,0,.18-.12.19-.18s0-.18-.15-.29l-.48-.48ZM45.57,64l-1-1,.16,1.35.81-.37Zm4.58-1.77-.17.1a1.21,1.21,0,0,1,0,.18q0,.63-.3.78l-.55.34c-.15.12-.27.09-.35-.1l-1.16-1.93a.32.32,0,0,1,.12-.52l.13-.08-.11-.19-1.45.88.11.18.08-.05a.35.35,0,0,1,.54.13l1.14,1.9a.34.34,0,0,1-.16.54l-.08,0,.11.19,2.3-1.39-.19-1Zm3.55-1.77.06,0c.2-.15.2-.34,0-.56l-.63-.73-1.25,1.08.65.75a.33.33,0,0,0,.56,0l.06,0,.14.16-1.21,1L51.94,62l.06,0c.2-.16.2-.34,0-.56l-1.44-1.65a.33.33,0,0,0-.53,0l-.06,0-.14-.16,1.21-1.05.14.17-.06,0a.32.32,0,0,0,0,.54l.58.67,1.25-1.09-.57-.65a.37.37,0,0,0-.58,0l0,0L51.6,58,52.81,57l.14.16-.07.07a.32.32,0,0,0,0,.53l1.44,1.65c.18.23.36.25.56.06l.06-.05.14.16-1.2,1-.15-.17ZM54.29,58a1.67,1.67,0,0,0,2.47-.25,1.77,1.77,0,0,0-.14-2.63,1.71,1.71,0,0,0-2.49.21A1.84,1.84,0,0,0,54.29,58Zm.29-.73c.87.71,1.58.79,2.11.26s.27-1.08-.39-1.71c-.87-.66-1.55-.74-2.06-.24s-.29,1.11.34,1.69Zm3.94-1.82L57.61,55l.11-.17c.54.16.92.06,1.14-.29a.51.51,0,0,0-.15-.76c-.21-.13-.55-.07-1,.2a1.42,1.42,0,0,1-1.39.16.93.93,0,0,1-.23-1.34,2,2,0,0,1,.44-.46l.09-.1s0,0,0-.09,0,0,0,0l.06-.08.8.39-.11.16a.92.92,0,0,0-1,.31c-.13.27-.11.47.07.61s.46,0,.87-.17A5.1,5.1,0,0,1,58.1,53a1.16,1.16,0,0,1,.78.14,1,1,0,0,1,.27,1.43c-.17.22-.32.39-.44.53l-.14.12a.12.12,0,0,0,0,.13l-.07.11Zm.8-4a2.15,2.15,0,0,0,.28-.49c.34-.72.21-1.24-.38-1.57s-1.15,0-1.56.75c-.14.28-.25.52-.33.73s-.12.3-.16.42-.09.23-.13.32l.19.1,0-.09c.1-.23.24-.29.45-.17l2.1,1a.28.28,0,0,1,.14.46l0,.07.19.09.75-1.52-.2-.09-.06.12c-.11.29-.29.36-.55.2l-.73-.35Zm-1.61-.78a2,2,0,0,1,.12-.34.73.73,0,0,1,1-.3c.49.26.64.6.44,1a.65.65,0,0,1-.2.29l-1.39-.67Zm.92-1.95-.2-.08L59,47.16l.2.08,0,.07a.34.34,0,0,0,.23.51l2,.81c.26.12.43,0,.52-.2l0-.08.2.08L61.6,49.9l-.2-.08,0-.06c.11-.22,0-.38-.22-.49l-2-.82a.34.34,0,0,0-.52.19l0,.06Zm1.3-3.53.14-.57c0-.33.26-.45.76-.37l0-.19-1-.17,0,.17a.22.22,0,0,1,0,.25l-.57,2.3c0,.07,0,.11-.06.13a.14.14,0,0,1-.1.07l0,.16,1,.34.06-.21c-.48-.14-.65-.37-.5-.66l.14-.59,2.44.61c.28.07.38.23.31.47l0,.17.21.06.43-1.74-.2,0,0,.11c0,.31-.22.42-.5.32l-2.44-.61Zm2.55-3.31-.11,1.08.62.26c.16.08.27.1.34.06s.09-.18.1-.4V42.8l.21,0-.13,1.32-.22,0V44c0-.22-.1-.4-.46-.54l-2.52-1.13-.15,0,.07-.73,2.88-.7c.36-.06.54-.21.55-.45l.21,0-.17,1.61-.21,0,0-.17a.34.34,0,0,0-.06-.27.42.42,0,0,0-.32,0l-.67.17Zm-.31.06-1.33.33,1.24.56.09-.89Zm.9-4.83,1,.38-.09,2.69h-.22v-.1a.34.34,0,0,0-.37-.42l-2.21-.08a.34.34,0,0,0-.4.38V40h-.22l.06-1.7h.22v.16c0,.26.12.39.37.38l2.26.08c.2,0,.29-.05.26-.24l0-.65c0-.19-.16-.42-.5-.68l-.14-.1Z"/></g></g></svg>